{
	"asset":{
		"version":"2.0",
		"generator":"Created using the official Cinema 4D glTF Exporter 1.000x284978"
	},
	"scenes":[{
		"nodes":[0]
	}],
	"nodes":[{
		"name":"Cube.1",
		"translation":[0.0,
		150.0,
		0.0],
		"scale":[1.0,
		1.0,
		1.0],
		"rotation":[0.0,
		0.0,
		0.0,
		-1.0],
		"children":[1,
		2,
		3,
		4,
		5,
		6,
		7,
		8,
		9,
		10]
	},
	{
		"name":"Cube.1-Mat.2",
		"mesh":0
	},
	{
		"name":"Cube.1-Mat.3",
		"mesh":1
	},
	{
		"name":"Cube.1-Mat.3",
		"mesh":2
	},
	{
		"name":"Cube.1-PBR",
		"mesh":3
	},
	{
		"name":"Cube.1-Mat",
		"mesh":4
	},
	{
		"name":"Cube.1-Métal",
		"mesh":5
	},
	{
		"name":"Cube.1-Mat",
		"mesh":6
	},
	{
		"name":"Cube.1-Métal",
		"mesh":7
	},
	{
		"name":"Cube.1-Métal",
		"mesh":8
	},
	{
		"name":"Cube.1-Métal",
		"mesh":9
	}],
	"meshes":[{
		"name":"Cube.1-Mat.2",
		"primitives":[{
			"attributes":{
				"POSITION":1,
				"NORMAL":2,
				"TEXCOORD_0":3
			},
			"indices":0,
			"material":0
		}]
	},
	{
		"name":"Cube.1-Mat.3",
		"primitives":[{
			"attributes":{
				"POSITION":5,
				"NORMAL":6,
				"TEXCOORD_0":7
			},
			"indices":4,
			"material":1
		}]
	},
	{
		"name":"Cube.1-Mat.3",
		"primitives":[{
			"attributes":{
				"POSITION":9,
				"NORMAL":10,
				"TEXCOORD_0":11
			},
			"indices":8,
			"material":1
		}]
	},
	{
		"name":"Cube.1-PBR",
		"primitives":[{
			"attributes":{
				"POSITION":13,
				"NORMAL":14,
				"TEXCOORD_0":15
			},
			"indices":12,
			"material":2
		}]
	},
	{
		"name":"Cube.1-Mat",
		"primitives":[{
			"attributes":{
				"POSITION":17,
				"NORMAL":18,
				"TEXCOORD_0":19
			},
			"indices":16,
			"material":3
		}]
	},
	{
		"name":"Cube.1-Métal",
		"primitives":[{
			"attributes":{
				"POSITION":21,
				"NORMAL":22,
				"TEXCOORD_0":23
			},
			"indices":20,
			"material":4
		}]
	},
	{
		"name":"Cube.1-Mat",
		"primitives":[{
			"attributes":{
				"POSITION":25,
				"NORMAL":26,
				"TEXCOORD_0":27
			},
			"indices":24,
			"material":3
		}]
	},
	{
		"name":"Cube.1-Métal",
		"primitives":[{
			"attributes":{
				"POSITION":29,
				"NORMAL":30,
				"TEXCOORD_0":31
			},
			"indices":28,
			"material":4
		}]
	},
	{
		"name":"Cube.1-Métal",
		"primitives":[{
			"attributes":{
				"POSITION":33,
				"NORMAL":34,
				"TEXCOORD_0":35
			},
			"indices":32,
			"material":4
		}]
	},
	{
		"name":"Cube.1-Métal",
		"primitives":[{
			"attributes":{
				"POSITION":37,
				"NORMAL":38,
				"TEXCOORD_0":39
			},
			"indices":36,
			"material":4
		}]
	}],
	"accessors":[{
		"min":[0],
		"bufferView":0,
		"type":"SCALAR",
		"componentType":5123,
		"count":2259,
		"byteOffset":0,
		"max":[939]
	},
	{
		"min":[-13.5,
		-150.0,
		-60.961669921875],
		"bufferView":1,
		"type":"VEC3",
		"componentType":5126,
		"count":940,
		"byteOffset":0,
		"max":[50.0,
		50.0260124206543,
		35.01414489746094]
	},
	{
		"min":[-1.0,
		-1.0,
		-1.0],
		"bufferView":1,
		"type":"VEC3",
		"componentType":5126,
		"count":940,
		"byteOffset":12,
		"max":[1.0,
		1.0,
		1.0]
	},
	{
		"min":[0.0,
		0.0],
		"bufferView":1,
		"type":"VEC2",
		"componentType":5126,
		"count":940,
		"byteOffset":24,
		"max":[1.0,
		1.0]
	},
	{
		"min":[0],
		"bufferView":2,
		"type":"SCALAR",
		"componentType":5123,
		"count":6,
		"byteOffset":0,
		"max":[3]
	},
	{
		"min":[-7.5,
		-47.0,
		35.0],
		"bufferView":3,
		"type":"VEC3",
		"componentType":5126,
		"count":4,
		"byteOffset":0,
		"max":[7.5,
		47.0,
		35.0]
	},
	{
		"min":[0.0,
		-0.13050000369548798,
		0.9914063215255737],
		"bufferView":3,
		"type":"VEC3",
		"componentType":5126,
		"count":4,
		"byteOffset":12,
		"max":[0.0,
		0.13050000369548798,
		0.9914063215255737]
	},
	{
		"min":[0.42000001668930056,
		0.23580679297447205],
		"bufferView":3,
		"type":"VEC2",
		"componentType":5126,
		"count":4,
		"byteOffset":24,
		"max":[0.5578315854072571,
		0.7629531621932983]
	},
	{
		"min":[0],
		"bufferView":4,
		"type":"SCALAR",
		"componentType":5123,
		"count":12,
		"byteOffset":0,
		"max":[5]
	},
	{
		"min":[-10.526012420654297,
		-50.0260124206543,
		-58.53435516357422],
		"bufferView":5,
		"type":"VEC3",
		"componentType":5126,
		"count":6,
		"byteOffset":0,
		"max":[10.526012420654297,
		50.0260124206543,
		-58.53435516357422]
	},
	{
		"min":[0.0,
		0.0,
		-1.0],
		"bufferView":5,
		"type":"VEC3",
		"componentType":5126,
		"count":6,
		"byteOffset":12,
		"max":[0.0,
		0.0,
		-1.0]
	},
	{
		"min":[0.4252544939517975,
		0.21640749275684358],
		"bufferView":5,
		"type":"VEC2",
		"componentType":5126,
		"count":6,
		"byteOffset":24,
		"max":[0.5603375434875488,
		0.7798030376434326]
	},
	{
		"min":[0],
		"bufferView":6,
		"type":"SCALAR",
		"componentType":5123,
		"count":6,
		"byteOffset":0,
		"max":[3]
	},
	{
		"min":[5.469213485717773,
		-45.0,
		-31.5],
		"bufferView":7,
		"type":"VEC3",
		"componentType":5126,
		"count":4,
		"byteOffset":0,
		"max":[5.469213485717773,
		45.0,
		31.5]
	},
	{
		"min":[1.0,
		0.0,
		0.0],
		"bufferView":7,
		"type":"VEC3",
		"componentType":5126,
		"count":4,
		"byteOffset":12,
		"max":[1.0,
		0.0,
		0.0]
	},
	{
		"min":[0.0,
		0.047610703855752948],
		"bufferView":7,
		"type":"VEC2",
		"componentType":5126,
		"count":4,
		"byteOffset":24,
		"max":[1.0004496574401856,
		0.997321367263794]
	},
	{
		"min":[0],
		"bufferView":8,
		"type":"SCALAR",
		"componentType":5123,
		"count":24,
		"byteOffset":0,
		"max":[7]
	},
	{
		"min":[18.526386260986329,
		-61.91872787475586,
		-51.95946502685547],
		"bufferView":9,
		"type":"VEC3",
		"componentType":5126,
		"count":8,
		"byteOffset":0,
		"max":[21.085193634033204,
		-57.502742767333987,
		-42.06663513183594]
	},
	{
		"min":[0.8652188181877136,
		0.34428125619888308,
		0.0],
		"bufferView":9,
		"type":"VEC3",
		"componentType":5126,
		"count":8,
		"byteOffset":12,
		"max":[0.9387813210487366,
		0.5012812614440918,
		0.0]
	},
	{
		"min":[0.009076438844203949,
		0.9524308443069458],
		"bufferView":9,
		"type":"VEC2",
		"componentType":5126,
		"count":8,
		"byteOffset":24,
		"max":[0.009076440706849099,
		0.9524308443069458]
	},
	{
		"min":[0],
		"bufferView":10,
		"type":"SCALAR",
		"componentType":5123,
		"count":6,
		"byteOffset":0,
		"max":[3]
	},
	{
		"min":[6.28688907623291,
		-8.399262428283692,
		-50.652889251708987],
		"bufferView":11,
		"type":"VEC3",
		"componentType":5126,
		"count":4,
		"byteOffset":0,
		"max":[7.069747447967529,
		-5.472431659698486,
		-43.37321090698242]
	},
	{
		"min":[0.9659687876701355,
		0.25834375619888308,
		0.0],
		"bufferView":11,
		"type":"VEC3",
		"componentType":5126,
		"count":4,
		"byteOffset":12,
		"max":[0.9659687876701355,
		0.25834375619888308,
		0.0]
	},
	{
		"min":[0.009076440706849099,
		0.5378762483596802],
		"bufferView":11,
		"type":"VEC2",
		"componentType":5126,
		"count":4,
		"byteOffset":24,
		"max":[0.009076440706849099,
		0.5668340921401978]
	},
	{
		"min":[0],
		"bufferView":12,
		"type":"SCALAR",
		"componentType":5123,
		"count":396,
		"byteOffset":0,
		"max":[167]
	},
	{
		"min":[15.444408416748047,
		-60.419281005859378,
		-13.90831470489502],
		"bufferView":13,
		"type":"VEC3",
		"componentType":5126,
		"count":168,
		"byteOffset":0,
		"max":[25.19866180419922,
		-51.663482666015628,
		-11.815807342529297]
	},
	{
		"min":[-0.9999688267707825,
		-0.8002187609672546,
		-1.0],
		"bufferView":13,
		"type":"VEC3",
		"componentType":5126,
		"count":168,
		"byteOffset":12,
		"max":[0.9999688267707825,
		0.9623438119888306,
		1.0]
	},
	{
		"min":[0.9999998807907105,
		0.6964859962463379],
		"bufferView":13,
		"type":"VEC2",
		"componentType":5126,
		"count":168,
		"byteOffset":24,
		"max":[1.0,
		0.7054531574249268]
	},
	{
		"min":[0],
		"bufferView":14,
		"type":"SCALAR",
		"componentType":5123,
		"count":120,
		"byteOffset":0,
		"max":[47]
	},
	{
		"min":[22.68548583984375,
		-60.54458999633789,
		-19.26893424987793],
		"bufferView":15,
		"type":"VEC3",
		"componentType":5126,
		"count":48,
		"byteOffset":0,
		"max":[25.554433822631837,
		-58.796165466308597,
		19.152360916137697]
	},
	{
		"min":[-0.8653125166893005,
		-0.5011875033378601,
		-1.0],
		"bufferView":15,
		"type":"VEC3",
		"componentType":5126,
		"count":48,
		"byteOffset":12,
		"max":[0.8653125166893005,
		0.8653125166893005,
		0.0]
	},
	{
		"min":[1.0,
		0.20074433088302613],
		"bufferView":15,
		"type":"VEC2",
		"componentType":5126,
		"count":48,
		"byteOffset":24,
		"max":[1.0,
		0.801077127456665]
	},
	{
		"min":[0],
		"bufferView":16,
		"type":"SCALAR",
		"componentType":5123,
		"count":126,
		"byteOffset":0,
		"max":[47]
	},
	{
		"min":[15.131060600280762,
		-56.109615325927737,
		-19.26893424987793],
		"bufferView":17,
		"type":"VEC3",
		"componentType":5126,
		"count":48,
		"byteOffset":0,
		"max":[18.000009536743165,
		-54.403533935546878,
		19.152360916137697]
	},
	{
		"min":[-0.8653125166893005,
		-0.5011875033378601,
		-1.0],
		"bufferView":17,
		"type":"VEC3",
		"componentType":5126,
		"count":48,
		"byteOffset":12,
		"max":[0.8653125166893005,
		0.8653125166893005,
		0.0]
	},
	{
		"min":[1.0,
		0.20074433088302613],
		"bufferView":17,
		"type":"VEC2",
		"componentType":5126,
		"count":48,
		"byteOffset":24,
		"max":[1.0,
		0.801077127456665]
	},
	{
		"min":[0],
		"bufferView":18,
		"type":"SCALAR",
		"componentType":5123,
		"count":807,
		"byteOffset":0,
		"max":[307]
	},
	{
		"min":[6.1566267013549809,
		-60.1760368347168,
		-51.33803939819336],
		"bufferView":19,
		"type":"VEC3",
		"componentType":5126,
		"count":308,
		"byteOffset":0,
		"max":[19.488000869750978,
		-4.733777046203613,
		-42.68805694580078]
	},
	{
		"min":[-0.25834375619888308,
		-0.9999688267707825,
		-1.0],
		"bufferView":19,
		"type":"VEC3",
		"componentType":5126,
		"count":308,
		"byteOffset":12,
		"max":[0.9999688267707825,
		0.9999688267707825,
		1.0]
	},
	{
		"min":[0.009076438844203949,
		0.5316885709762573],
		"bufferView":19,
		"type":"VEC2",
		"componentType":5126,
		"count":308,
		"byteOffset":24,
		"max":[0.009076440706849099,
		0.9524308443069458]
	}],
	"bufferViews":[{
		"buffer":0,
		"byteOffset":0,
		"byteLength":4518,
		"target":34963
	},
	{
		"buffer":0,
		"byteOffset":4520,
		"byteLength":30080,
		"target":34962,
		"byteStride":32
	},
	{
		"buffer":1,
		"byteOffset":0,
		"byteLength":12,
		"target":34963
	},
	{
		"buffer":1,
		"byteOffset":12,
		"byteLength":128,
		"target":34962,
		"byteStride":32
	},
	{
		"buffer":2,
		"byteOffset":0,
		"byteLength":24,
		"target":34963
	},
	{
		"buffer":2,
		"byteOffset":24,
		"byteLength":192,
		"target":34962,
		"byteStride":32
	},
	{
		"buffer":3,
		"byteOffset":0,
		"byteLength":12,
		"target":34963
	},
	{
		"buffer":3,
		"byteOffset":12,
		"byteLength":128,
		"target":34962,
		"byteStride":32
	},
	{
		"buffer":4,
		"byteOffset":0,
		"byteLength":48,
		"target":34963
	},
	{
		"buffer":4,
		"byteOffset":48,
		"byteLength":256,
		"target":34962,
		"byteStride":32
	},
	{
		"buffer":5,
		"byteOffset":0,
		"byteLength":12,
		"target":34963
	},
	{
		"buffer":5,
		"byteOffset":12,
		"byteLength":128,
		"target":34962,
		"byteStride":32
	},
	{
		"buffer":6,
		"byteOffset":0,
		"byteLength":792,
		"target":34963
	},
	{
		"buffer":6,
		"byteOffset":792,
		"byteLength":5376,
		"target":34962,
		"byteStride":32
	},
	{
		"buffer":7,
		"byteOffset":0,
		"byteLength":240,
		"target":34963
	},
	{
		"buffer":7,
		"byteOffset":240,
		"byteLength":1536,
		"target":34962,
		"byteStride":32
	},
	{
		"buffer":8,
		"byteOffset":0,
		"byteLength":252,
		"target":34963
	},
	{
		"buffer":8,
		"byteOffset":252,
		"byteLength":1536,
		"target":34962,
		"byteStride":32
	},
	{
		"buffer":9,
		"byteOffset":0,
		"byteLength":1614,
		"target":34963
	},
	{
		"buffer":9,
		"byteOffset":1616,
		"byteLength":9856,
		"target":34962,
		"byteStride":32
	}],
	"buffers":[{
		"uri":"data:application/octet-stream;base64,",
		"byteLength":34600
	},
	{
		"uri":"data:application/octet-stream;base64,",
		"byteLength":140
	},
	{
		"uri":"data:application/octet-stream;base64,",
		"byteLength":216
	},
	{
		"uri":"data:application/octet-stream;base64,",
		"byteLength":140
	},
	{
		"uri":"data:application/octet-stream;base64,",
		"byteLength":304
	},
	{
		"uri":"data:application/octet-stream;base64,",
		"byteLength":140
	},
	{
		"uri":"data:application/octet-stream;base64,",
		"byteLength":6168
	},
	{
		"uri":"data:application/octet-stream;base64,",
		"byteLength":1776
	},
	{
		"uri":"data:application/octet-stream;base64,",
		"byteLength":1788
	},
	{
		"uri":"data:application/octet-stream;base64,",
		"byteLength":11472
	}],
	"images":[{
		"uri":"data:image/jpeg;base64,"
	},
	{
		"uri":"data:image/jpeg;base64,"
	}],
	"samplers":[{
		"magFilter":9729,
		"minFilter":9729,
		"wrapS":10497,
		"wrapT":10497
	},
	{
		"magFilter":9729,
		"minFilter":9729,
		"wrapS":10497,
		"wrapT":10497
	}],
	"textures":[{
		"sampler":0,
		"source":0
	},
	{
		"sampler":1,
		"source":1
	}],
	"materials":[{
		"pbrMetallicRoughness":{
			"baseColorFactor":[0.8,
			0.8,
			0.8,
			1.0],
			"metallicFactor":0.0,
			"roughnessFactor":0.5
		},
		"emissiveFactor":[0.0,
		0.0,
		0.0],
		"alphaMode":"OPAQUE",
		"doubleSided":true,
		"name":"Mat.2"
	},
	{
		"pbrMetallicRoughness":{
			"baseColorTexture":{
				"index":0
			},
			"baseColorFactor":[0.8,
			0.8,
			0.8,
			1.0],
			"metallicFactor":0.0,
			"roughnessFactor":0.5
		},
		"emissiveFactor":[0.0,
		0.0,
		0.0],
		"alphaMode":"OPAQUE",
		"doubleSided":true,
		"name":"Mat.3"
	},
	{
		"pbrMetallicRoughness":{
			"baseColorTexture":{
				"index":1
			},
			"baseColorFactor":[0.8,
			0.8,
			0.8,
			1.0],
			"metallicFactor":1.0,
			"roughnessFactor":0.3
		},
		"emissiveFactor":[0.0,
		0.0,
		0.0],
		"alphaMode":"OPAQUE",
		"doubleSided":true,
		"name":"PBR"
	},
	{
		"pbrMetallicRoughness":{
			"baseColorFactor":[0.0,
			0.0,
			0.0,
			1.0],
			"metallicFactor":0.0,
			"roughnessFactor":0.5
		},
		"emissiveFactor":[0.0,
		0.0,
		0.0],
		"alphaMode":"OPAQUE",
		"doubleSided":true,
		"name":"Mat"
	},
	{
		"pbrMetallicRoughness":{
			"baseColorFactor":[0.8,
			0.8,
			0.8,
			1.0],
			"metallicFactor":1.0,
			"roughnessFactor":0.25
		},
		"emissiveFactor":[0.0,
		0.0,
		0.0],
		"alphaMode":"OPAQUE",
		"doubleSided":true,
		"name":"Métal"
	}]
}