<svg xmlns="http://www.w3.org/2000/svg" viewBox="0 0 511.2 223.1">
  <g id="Calque_2" data-name="Calque 2">
    <g id="Calque_1-2" data-name="Calque 1">
      <g>
        <path d="M63.08,101.84,108.21,91.6c2.09,8.92,6.83,12.71,14,12.71,7.39,0,12.14-4,12.14-9.86,0-6.26-5.5-10.81-12.9-10.81H104.8V54.24h16.12c6.83,0,12.33-3.22,12.33-9.29,0-5.5-4.17-9.1-10.62-9.1-6.26,0-10,3.22-11.76,10.43l-43.62-7.4C69.33,15.74,91.9,0,124.52,0c30.73,0,52.92,14.23,52.92,36.6,0,16.31-11.19,27.88-30.92,31.3C167,70.74,181.23,84,181.23,102c0,22.38-19,37.56-56.33,37.56C91.33,139.59,68.2,127.45,63.08,101.84Z"/>
        <path d="M191.66,74.91c0-54,34.14-74.91,69.79-74.91,17.45,0,32.62,4.36,37.36,7V42.48c-7.2-2.84-19-6.45-30.72-6.45-15.74,0-30.16,7.21-30.35,25.61,3.8-6.26,12.71-13.09,29-13.09,15.36,0,42.1,9.3,42.1,42.11,0,35.65-29.58,48.93-55.38,48.93C204.74,139.59,191.66,102.22,191.66,74.91ZM264.3,90.47c0-7.4-6.07-12.71-13.28-12.71-7.78,0-12.9,5.31-12.9,12.71,0,8.15,5.12,13.27,12.9,13.27C258.42,103.74,264.3,98.43,264.3,90.47Z"/>
        <path d="M319.1,71.12C319.1,28.64,343.76,0,382.26,0c38.69,0,64.1,28.26,64.1,70.93s-25.41,68.66-64.1,68.66C343.76,139.59,319.1,114,319.1,71.12Zm76.62-1.52c0-23.89-4.55-33.75-13.46-33.75-8.73,0-12.71,9.86-12.71,33.75,0,25.42,4.17,33.76,12.71,33.76C391,103.36,395.72,94.64,395.72,69.6Z"/>
      </g>
      <path d="M278.11,198.33c130.62-3.45,233.09-36.65,233.09-77.1,0-17.23-18.58-33.14-50-46v10.7h0s25.7,13.29,25.7,28.46c0,35.34-96.62,61.92-208.83,65Z"/>
      <path d="M274,188.1l-10.84-10.4h0L239,154.48l-10.4,10.83,14.88,14.3c-116.19-1.78-219.1-28.86-219.1-65.19C24.33,99.24,50,86,50,86h0V75.25C18.58,88.12,0,104,0,121.26c0,41.48,107.73,75.33,243.07,77.31L229.5,212.7l10.83,10.4,23.22-24.17h0L274,188.1h0Z"/>
    </g>
  </g>
</svg>
