<?xml version="1.0" encoding="utf-8"?>
<!-- Generator: Adobe Illustrator 26.0.1, SVG Export Plug-In . SVG Version: 6.00 Build 0)  -->
<svg version="1.1" id="Calque_1" xmlns="http://www.w3.org/2000/svg" xmlns:xlink="http://www.w3.org/1999/xlink" x="0px" y="0px"
	 viewBox="0 0 447.7 453.2" style="enable-background:new 0 0 447.7 453.2;" xml:space="preserve">
<style type="text/css">
	.st0{fill:#FFFFFF;}
</style>
<g id="Calque_2_00000067954915733451809250000007775160887827521680_">
	<g id="Calque_1-2">
		<g>
			<path d="M970.8-81.6c13.3-15.8,25.5-32.2,34.2-51c9.3-20.3,14.5-41.5,13-63.8c-1.3-19.6-7.5-38.6-18.2-55.1
				c-3.1-4.9-6.4-9.6-9.8-14.8l17.9-25c6.8,1.7,13.3,3.7,20.1,5c26.1,4.9,51.6,3.8,76.1-7.7c5.7-2.8,11.2-5.9,16.5-9.2
				c2.3-1.4,3.8-1.4,6.1,0.1c14.4,10,30.8,16.8,48,20.1c20.1,3.8,40.8,1.3,59.5-7.1c9.5-4.1,18.4-9.9,27.8-15.1
				c36.4,24.1,78.1,26.9,116.1,13.2l19.8,25.6c-10.7,13.1-18.7,28.2-23.5,44.4c-10.3,34.8-5.2,67.7,12.7,98.7
				c6.3,10.9,14.4,20.9,21.8,31.1c3,4.1,6.3,8,9.7,12.1c-6.2,6.8-12.6,13.7-18.8,20.7c-1.2,1.4-1.9,3.2-1.9,5.1
				c0.8,23.7-1.6,46.9-9.6,69.3c-13.4,37.1-38,64.3-73.1,82.1c-21.1,10.6-43.5,17-66.8,20.2c-6.7,0.9-13.4,1.5-20.1,2.6
				c-1.7,0.5-3.2,1.4-4.5,2.6c-8.8,7.9-17.7,15.9-26.4,24c-2.1,2-3.4,1.9-5.5,0c-9.2-8-18.6-15.8-27.9-23.8
				c-3.1-2.7-6.8-3.2-10.7-3.5c-27.7-2.1-54.7-9.6-79.6-22c-17-8.4-32.3-19.9-45-33.9c-18.6-20.7-29.8-45-34.8-72.3
				c-2.7-15.1-3.7-30.5-3.1-45.9c0.2-3-1-6-3.2-8.1C981.9-68.9,976.5-75.2,970.8-81.6z M980.4-80.6c4.7,5.2,10,11,15.1,17.1
				c1.3,1.6,2,3.5,2,5.5c-0.3,15-0.1,30,2.4,44.9c6.6,39,25,70.6,57.8,93.1c30.2,20.8,64.2,30.3,100.4,33c2.4,0.2,4.8,1,6.8,2.4
				c5.5,4.1,10.6,8.5,15.8,12.9c4.5,3.8,9,7.6,13.3,11.2c9-8,17.9-16,26.9-23.7c1.7-1.5,3.9-2.4,6.2-2.7
				c23.3-2.3,46.2-6.4,68.1-14.8c28.6-11,52.8-27.7,70.1-53.4c20.4-30.3,27.8-64,25.1-100.2c-0.4-2.7,0.6-5.5,2.6-7.4
				c5.5-5.6,10.7-11.6,15.6-16.9c-8.3-11.8-17-22.7-24.1-34.5c-27.9-46.1-30.3-93.2-3.2-140.8c2.3-4,7-8.2,6.7-11.9
				c-0.4-4.1-5.5-7.6-8.1-11.7c-2.6-4.1-5.8-4.8-10.5-3.5c-36.6,10-71.4,5.5-104.4-13.4c-2.5-1.4-4.2-1.4-6.7,0.2
				c-20.8,14.1-43.7,21.6-69,20.4c-22.7-1-43.5-8.3-62.5-20.6c-2.4-1.5-4-1.5-6.3,0c-3.7,2.4-7.6,4.6-11.6,6.5
				c-30.3,14.3-61.6,15.1-93.5,6.4c-3.8-1.1-5.8-0.4-7.8,2.8c-2.3,3.6-4.8,7.1-7.6,10.5c-1.8,2.2-1.6,3.9,0.1,6.2
				c7.3,10.1,13.2,21.2,17.4,32.9c12.9,36.9,8.1,72.4-9.7,106.2C999.9-109,989.8-95.4,980.4-80.6L980.4-80.6z"/>
			<path class="st0" d="M980.4-80.5c9.5-14.8,19.5-28.5,27.4-43.4c17.8-33.8,22.6-69.3,9.7-106.2c-4.2-11.7-10.1-22.8-17.4-33
				c-1.6-2.3-1.8-4-0.1-6.2c2.7-3.3,5.3-6.8,7.6-10.4c2-3.2,4-3.9,7.8-2.8c31.8,8.7,63.1,7.9,93.5-6.4c4-1.9,7.9-4.1,11.6-6.5
				c2.3-1.5,3.9-1.5,6.3,0c19,12.3,39.8,19.6,62.5,20.6c25.3,1.2,48.2-6.4,69-20.4c2.5-1.7,4.2-1.7,6.7-0.2
				c32.9,18.9,67.7,23.4,104.4,13.4c4.7-1.3,7.8-0.7,10.5,3.5c2.7,4.2,7.8,7.6,8.1,11.7c0.3,3.8-4.4,7.9-6.7,11.9
				c-27.1,47.6-24.7,94.7,3.2,140.9c7.1,11.8,15.8,22.7,24.1,34.5c-4.9,5.3-10.1,11.3-15.6,16.9c-2,1.9-2.9,4.6-2.6,7.4
				c2.7,36.1-4.8,69.9-25.1,100.2c-17.2,25.7-41.5,42.4-70.1,53.4c-21.9,8.4-44.8,12.5-68.1,14.8c-2.3,0.3-4.4,1.2-6.2,2.7
				c-9,7.7-17.8,15.7-26.9,23.7c-4.3-3.6-8.7-7.5-13.3-11.2c-5.2-4.4-10.4-8.8-15.8-12.9c-2-1.4-4.3-2.2-6.8-2.4
				c-36.2-2.8-70.2-12.3-100.4-33.1c-32.8-22.6-51.3-54.2-57.8-93.1C997.4-28,997.2-43,997.5-58c0-2-0.7-3.9-2-5.5
				C990.4-69.5,985-75.3,980.4-80.5z M1371.7-63.3h-355.5c-2.3,14.9-2.2,30,0.6,44.9c5.3,30.4,19.2,55.9,43.4,75.5
				c22.1,18,48,27.4,75.6,32.6c35.1,6.6,70.4,7,105.8,2.4c24.5-3.2,48-9.9,69.8-22.1C1366.1,39,1379-19.9,1371.7-63.3L1371.7-63.3z
				 M1123.3-280.2c-14.3,11.8-31.2,16.7-49.2,18.5c-17.8,1.8-35.4-0.2-53.2-4c25.7,46.7,27.9,93.8,6,141.7h332.4
				c-23-48.1-14.7-94.5,6-139.6c-14.2,0.8-28.2,2.3-42.3,2.3c-22.2,0-43.3-4.3-60.9-18.8C1215.8-250.4,1169.7-252.3,1123.3-280.2z
				 M1262.3-95.3c3.4-3.8,4-9.3,1.7-13.8c-2.1-4.5-5.8-6.9-11.1-6.4c-3.2,0.3-6.4,0.1-9.6,0.1h-12.5v45c9,0,17.5,0.2,25.9-0.1
				c2.1-0.1,4.4-1.7,6-3.2C1268.6-79.7,1268.4-87.6,1262.3-95.3L1262.3-95.3z M1205.9-106.9c-2.5-7.1-9.7-11.1-17.5-9.9
				c-9.9,1.5-15.8,7.2-17.5,17.2c-1.7,9.5-0.8,18.3,6.6,25.3c8.4,8,25.1,5.7,28.3-5.4l-7-4.3c-6.7,6.1-14.6,5.8-17.7-0.8
				c-3-5.8-2.6-12.8,0.9-18.3c2.4-3.9,7.4-5.7,11.2-4c2,1,3.7,2.7,5.8,4.2L1205.9-106.9z M1118.7-115.2v44.6h10.6v-18.3h12.2v-10.2
				h-12.1v-7.8h22.1v-8.3H1118.7z"/>
			<path d="M1371.7-63.3c7.3,43.5-5.6,102.3-60.4,133.2c-21.7,12.2-45.2,19-69.8,22.1c-35.3,4.6-70.7,4.3-105.8-2.4
				c-27.6-5.2-53.5-14.7-75.6-32.6c-24.1-19.6-38.1-45.1-43.4-75.5c-2.7-14.8-2.9-30-0.6-44.9L1371.7-63.3z M1270.8-59.2V81.3
				c0.5,0.1,1,0.1,1.5,0.1c17-4.9,33.2-11.7,47.5-22.2c1.5-1.3,2.3-3.1,2.4-5.1c0.2-36.2,0.1-72.5,0.1-108.7c0-1.5-0.2-2.9-0.2-4.5
				L1270.8-59.2z M1117.9,80.7c0.2-0.7,0.3-1.4,0.3-2.2c0-44.8,0-89.7,0.1-134.5c0-3-1.3-3.4-3.8-3.3c-15,0.1-30,0-45,0.1
				c-0.9,0.1-1.9,0.2-2.8,0.4c-0.1,0.6-0.2,1.2-0.2,1.9c0,37.1,0,74.1,0.1,111.2c0,1.5,1.4,3.5,2.7,4.5c14,10.1,29.6,16.8,45.9,21.8
				C1116.2,80.6,1117,80.7,1117.9,80.7z M1168.5,90.1h51.1V55.3c-17.1,9.7-33.9,9.7-51.1,0.6V90.1z M1219.5-59h-50.8v30.8
				c17.3-9.1,34.1-8.6,50.8,0.5L1219.5-59z M1152,35c3.6,4.3,6.5,9.4,10.9,12.6c2.4,1.8,7.1,0.8,10.8,0.6c3.6-0.2,7.2-0.8,10.7-1.8
				c11.3-3,21.4-8,27.2-18.9c2.5-4.7-0.7-13.2-5.7-15.1c-3.8-1.5-10,0.6-11.6,4c-5.3,10.7-9.9,12.5-21.5,9c-1.2-0.3-2.5-0.1-3.5,0.6
				C1164.8,31,1159.6,33.9,1152,35L1152,35z M1235.5,32.2c3.4-7.8,5.5-14.4,0-21.1c-2.5-3-4.4-6.4-7.1-9.2
				c-8-8.7-17.6-14.3-29.7-14.6c-6.3-0.1-11.5,3.8-11.6,10.1c-0.1,3.6,1.6,7.4,3.1,10.8c1.4,3.1,3.6,4.1,7.3,2.2
				c6.3-3.2,12.1-1,15.5,5.2c1.1,2,1.9,4.2,3,6.7C1224.4,20.7,1231.4,22.8,1235.5,32.2L1235.5,32.2z M1188.9-31.5
				c-6.7,0.4-13.2,2.6-18.8,6.2c-0.4,0.3-0.8,0.8-1,1.3c-6.7,13-8.9,30.1,0.3,43c5.2,7.4,16.9,6.6,21.1-1.3c1.1-2.1,1.1-3.5-0.6-5.4
				c-7.8-8.7-7.9-16.1-0.7-25.2c0.3-0.4,0.6-0.9,0.8-1.4C1185-19.4,1184.4-25,1188.9-31.5z M1169,52.3c0.5,0.5,0.9,0.9,1.5,1.3
				c19.9,12.8,50.9,5,62.2-15.7c0.6-1.2,0.7-2.5,0.4-3.8c-1.8-6.4-6.4-9.8-12.9-9.3c-1.8,0.1-4.4,1.1-5.1,2.4
				c-5.7,11.1-15,17.6-26.6,20.9C1182.3,49.9,1175.9,50.9,1169,52.3L1169,52.3z M1238.4,9.8l0.9-0.4c-0.5-2.5-0.9-5-1.5-7.4
				c-5-18.5-20.9-31.9-40-33.8c-4.4-0.4-8.9,3.6-9.2,8.1c-0.2,4.2,2.9,7.7,7.1,8c0.3,0,0.5,0,0.8,0c15.7-0.2,27.5,7.2,37.1,19.1
				C1235.3,5.5,1236.8,7.6,1238.4,9.8z M1163.4-19.8c-0.7,0.3-1.3,0.7-1.9,1.1c-11.9,10.3-17.4,32.5-11.4,47.1
				c0.9,1.4,2.3,2.4,4,2.5c4.7,0.2,8.4-2.2,11.8-5.4c2.1-2,2.2-3.4,0.6-6c-5.1-7.6-7.1-16.8-5.7-25.8
				C1161.4-10.5,1162.4-14.8,1163.4-19.8z"/>
			<path d="M1123.3-280.2c46.4,27.9,92.4,29.7,138.7,0.1c17.6,14.5,38.7,18.8,60.9,18.9c14.1,0,28.2-1.5,42.4-2.3
				c-20.7,45.1-29,91.5-6,139.6H1027c21.8-47.9,19.7-95-6-141.7c17.8,3.8,35.4,5.8,53.2,4C1092.1-263.5,1109-268.4,1123.3-280.2z
				 M1262.2-273.7c-0.1,1-0.2,1.6-0.2,2.1l-0.2,139.9c0,0.4-0.2,1,0,1.2c0.7,0.9,1.6,2.4,2.4,2.4c4.4,0.3,8.8,0.1,13.6,0.1
				c0.1-2,0.3-3.6,0.3-5.2c0-18.2,0-36.4-0.1-54.6c-0.1-24.6-0.2-49.1-0.3-73.7c0-1.5-0.3-3.7-1.3-4.4
				C1272.1-268.5,1267.3-270.9,1262.2-273.7z M1243.7-264.8c-4.7,1.7-8.7,3.3-12.8,4.4c-3.1,0.8-4,2.3-4,5.5
				c0.1,40.8,0,81.6,0,122.4c0,1.5,0.1,2.9,0.2,4.4h16.5V-264.8z M1296.4-259.4v4.5c-0.1,25.3-0.1,50.6-0.2,75.9
				c0,15.6,0.1,31.1-0.1,46.7c0,3.7,1.1,5,4.7,4.6c2.5-0.3,5-0.3,7.5,0c4,0.5,5.1-1,5.1-5c-0.2-40-0.2-80-0.3-120
				c0-1.3-0.1-2.7-0.2-4.1L1296.4-259.4z M1034.2-127.9c18.4,0,36.9,0,55.3,0c2.6,0,2.9-1.3,2.9-3.4c0-11.5-0.1-23,0-34.6
				c0-2.6-0.7-3.7-3.5-3.6c-13.6,0.1-27.2,0.2-40.8,0.1c-2.5,0-3.5,0.9-3.8,3.2c-0.3,2.7-0.7,5.5-1.4,8.2
				C1040.2-148.1,1037.2-138.2,1034.2-127.9z M1092.2-260.6c-21.1,5.1-41.9,4.2-63.2,0.8c0.8,1.8,1.4,2.9,1.8,4.1
				c3.8,11.1,7.9,22.2,11.4,33.4c0.9,3.1,2,3.9,5,3.8c13.6-0.1,27.2-0.1,40.8-0.1c1.3,0,2.7-0.2,4.2-0.2L1092.2-260.6z
				 M1141.3-128.2h49.4v-41h-49.4V-128.2z M1190.7-218.5v-36c-17.4-0.5-33.6-4.6-49.6-11.5v47.5L1190.7-218.5z M1194.5-254.2v126.1
				h14.3v-127.1L1194.5-254.2z M1352.6-127.9c-18.6-44.7-12.5-88,5.7-130.9c-7.6,0.6-14.6,1.4-21.6,1.6c-3.5,0.1-4.7,1-4.7,4.8
				c0.1,26.9,0,53.9,0,80.8c0,13.3,0,26.7,0,40c0,1.7-0.5,3.8,2.4,3.8C1340.4-127.9,1346.4-127.9,1352.6-127.9z"/>
			<path d="M1262.3-95.3c6.1,7.7,6.3,15.6,0.4,21.5c-1.6,1.6-3.9,3.1-6,3.2c-8.4,0.4-16.9,0.1-25.9,0.1v-45h12.5
				c3.2,0,6.4,0.2,9.6-0.1c5.3-0.4,9,1.9,11.1,6.4C1266.3-104.6,1265.7-99.1,1262.3-95.3z M1239.8-79.1c4.7,0,9.1,0.3,13.5-0.2
				c1.6-0.2,3.9-2.2,4.2-3.6c0.3-2.2-0.4-4.4-1.9-6.1c-1.3-1.3-4-1.6-6.1-1.7C1238.5-90.9,1238.5-90.8,1239.8-79.1z M1240.2-107.3
				c-2,7.6-1.4,8.5,5.8,8.5c1.9,0,4.1,0.5,5.7-0.2c1.6-0.7,3.6-2.6,4-4.3c0.6-2.6-1.5-3.9-4.1-4
				C1248-107.3,1244.3-107.3,1240.2-107.3L1240.2-107.3z"/>
			<path d="M1205.9-106.9l-6.9,4.1c-2-1.5-3.7-3.2-5.8-4.2c-3.8-1.8-8.7,0-11.1,4c-3.5,5.5-3.9,12.5-0.9,18.3
				c3.1,6.6,11,6.9,17.7,0.8l7,4.3c-3.3,11.1-19.9,13.4-28.3,5.4c-7.4-7-8.3-15.9-6.6-25.3c1.8-10,7.6-15.7,17.5-17.2
				C1196.2-117.9,1203.4-113.9,1205.9-106.9z"/>
			<path d="M1118.7-115.2h32.8v8.4h-22.1v7.8h12.1v10.2h-12.2v18.3h-10.6V-115.2z"/>
			<path class="st0" d="M1270.8-59.2h51.3c0.1,1.6,0.2,3.1,0.2,4.5c0,36.2,0,72.5-0.1,108.7c-0.1,1.9-0.9,3.8-2.4,5.1
				c-14.4,10.5-30.5,17.4-47.5,22.2c-0.5,0-1,0-1.5-0.1L1270.8-59.2z"/>
			<path class="st0" d="M1117.9,80.7c-0.9,0-1.7-0.1-2.6-0.2c-16.4-5-32-11.7-45.9-21.8c-1.3-1-2.7-3-2.7-4.5
				c-0.2-37.1-0.1-74.1-0.1-111.2c0-0.6,0.1-1.3,0.2-1.9c0.9-0.2,1.8-0.3,2.8-0.4c15,0,30,0,45-0.1c2.5,0,3.8,0.4,3.8,3.3
				c-0.1,44.8-0.1,89.7-0.1,134.5C1118.2,79.2,1118.1,79.9,1117.9,80.7z"/>
			<path class="st0" d="M1168.5,90.1V56c17.2,9,34,9.1,51.1-0.6v34.8H1168.5z"/>
			<path class="st0" d="M1219.6-59v31.3c-16.7-9.1-33.6-9.6-50.8-0.5V-59H1219.6z"/>
			<path class="st0" d="M1152.1,35c7.5-1.1,12.8-4,17.2-8.9c1-0.7,2.3-1,3.5-0.6c11.7,3.5,16.2,1.6,21.5-9c1.7-3.4,7.8-5.5,11.7-4
				c4.9,1.9,8.2,10.5,5.7,15.1c-5.9,10.9-15.9,15.9-27.2,18.9c-3.5,0.9-7.1,1.5-10.7,1.8c-3.6,0.2-8.3,1.2-10.8-0.6
				C1158.6,44.4,1155.6,39.3,1152.1,35z"/>
			<path class="st0" d="M1235.6,32.2c-4.2-9.4-11.1-11.5-19.6-9.9c-1.1-2.5-1.8-4.7-3-6.7c-3.4-6.2-9.2-8.4-15.5-5.2
				c-3.7,1.9-5.9,0.9-7.3-2.2c-1.5-3.4-3.2-7.2-3.1-10.8c0.2-6.3,5.3-10.2,11.6-10.1c12.1,0.3,21.7,5.9,29.7,14.6
				c2.6,2.8,4.6,6.3,7,9.2C1241.1,17.8,1238.9,24.4,1235.6,32.2z"/>
			<path class="st0" d="M1188.9-31.5c-4.5,6.5-3.9,12,1.1,17.2c-0.3,0.5-0.5,0.9-0.8,1.4c-7.2,9-7.1,16.5,0.7,25.2
				c1.8,1.9,1.7,3.3,0.6,5.4c-4.2,7.9-15.9,8.7-21.1,1.3c-9.2-13-7-30.1-0.3-43c0.2-0.5,0.6-0.9,1-1.3
				C1175.7-28.9,1182.2-31,1188.9-31.5z"/>
			<path class="st0" d="M1169,52.3c6.8-1.4,13.2-2.4,19.4-4.1c11.7-3.3,21-9.7,26.6-20.9c0.7-1.4,3.3-2.3,5.1-2.4
				c6.5-0.5,11.1,2.9,12.9,9.3c0.3,1.3,0.2,2.7-0.4,3.8c-11.2,20.7-42.3,28.5-62.2,15.7C1170,53.2,1169.5,52.8,1169,52.3z"/>
			<path class="st0" d="M1238.4,9.8c-1.6-2.1-3.2-4.3-4.9-6.4c-9.5-11.8-21.3-19.2-37.1-19.1c-4.2,0.2-7.7-3-7.9-7.2
				c0-0.3,0-0.5,0-0.8c0.3-4.5,4.8-8.5,9.2-8.1c19.1,1.9,35,15.3,40,33.8c0.7,2.4,1,5,1.5,7.4L1238.4,9.8z"/>
			<path class="st0" d="M1163.4-19.8c-1,5-2,9.3-2.7,13.6c-1.4,9,0.6,18.2,5.7,25.8c1.7,2.5,1.5,4-0.6,6c-3.3,3.1-7.1,5.5-11.8,5.4
				c-1.7-0.2-3.1-1.1-4-2.5c-6-14.6-0.6-36.8,11.4-47.1C1162.1-19.2,1162.7-19.5,1163.4-19.8z"/>
			<path class="st0" d="M1262.2-273.7c5.1,2.8,9.9,5.2,14.4,8c1,0.6,1.3,2.9,1.3,4.4c0.1,24.6,0.2,49.1,0.3,73.7
				c0,18.2,0.1,36.4,0.1,54.6c0,1.6-0.2,3.2-0.3,5.2c-4.8,0-9.2,0.1-13.6-0.1c-0.8,0-1.7-1.5-2.4-2.4c-0.2-0.3,0-0.8,0-1.2
				l0.2-139.9C1262-272.2,1262.1-272.7,1262.2-273.7z"/>
			<path class="st0" d="M1243.7-264.8v136.8h-16.5c-0.1-1.5-0.2-2.9-0.2-4.4c0-40.8,0.1-81.6,0-122.4c0-3.2,0.9-4.7,4-5.5
				C1235.1-261.5,1239-263.2,1243.7-264.8z"/>
			<path class="st0" d="M1296.4-259.4l16.5,2.4c0.1,1.4,0.2,2.8,0.2,4.1c0.1,40,0.1,80,0.3,120.1c0,4-1.1,5.5-5.1,5
				c-2.5-0.3-5-0.3-7.5,0c-3.6,0.4-4.8-0.8-4.7-4.6c0.2-15.6,0.1-31.1,0.1-46.7c0-25.3,0.1-50.6,0.2-75.9V-259.4z"/>
			<path class="st0" d="M1034.2-127.9c3-10.3,5.9-20.2,8.7-30.1c0.7-2.7,1.1-5.4,1.4-8.2c0.3-2.3,1.3-3.2,3.8-3.2
				c13.6,0.1,27.2,0.1,40.8-0.1c2.8,0,3.5,1,3.5,3.6c-0.1,11.5-0.1,23.1,0,34.6c0,2.1-0.2,3.4-2.9,3.4
				C1071.1-127.9,1052.7-127.9,1034.2-127.9z"/>
			<path class="st0" d="M1092.3-260.6v41.8c-1.5,0.1-2.8,0.2-4.2,0.2c-13.6,0-27.2-0.1-40.8,0.1c-3,0-4.1-0.8-5-3.8
				c-3.5-11.2-7.5-22.3-11.4-33.4c-0.4-1.2-1-2.3-1.8-4.1C1050.4-256.3,1071.1-255.4,1092.3-260.6z"/>
			<path class="st0" d="M1141.3-128.2v-41h49.4v41H1141.3z"/>
			<path class="st0" d="M1190.7-218.5h-49.6V-266c15.9,6.9,32.2,11,49.6,11.5V-218.5z"/>
			<path class="st0" d="M1194.5-254.2l14.3-1v127h-14.3V-254.2z"/>
			<path class="st0" d="M1352.6-127.9c-6.3,0-12.2-0.1-18.1,0c-3,0-2.4-2-2.4-3.8c0-13.3,0-26.7,0-40c0-26.9,0.1-53.9,0-80.8
				c0-3.7,1.2-4.6,4.7-4.8c7-0.2,14.1-1,21.6-1.6C1340.1-215.8,1334-172.5,1352.6-127.9z"/>
			<path class="st0" d="M1239.8-79.1c-1.3-11.7-1.3-11.8,9.6-11.6c2.1,0,4.8,0.4,6.1,1.7c1.5,1.7,2.2,3.9,1.9,6.1
				c-0.2,1.5-2.6,3.5-4.2,3.6C1249-78.8,1244.5-79.1,1239.8-79.1z"/>
			<path class="st0" d="M1240.2-107.3c4,0,7.8,0,11.5,0c2.6,0,4.7,1.4,4.1,4c-0.4,1.7-2.3,3.5-4,4.3c-1.7,0.8-3.8,0.2-5.7,0.2
				C1238.8-98.8,1240.2-102.1,1240.2-107.3z"/>
		</g>
	</g>
</g>
<g>
	<path class="st0" d="M9.8,224.6c9.5-14.8,19.5-28.5,27.4-43.4C55,147.4,59.8,111.9,46.9,75c-4.2-11.7-10.1-22.8-17.4-33
		c-1.6-2.3-1.8-4,0-6.2c2.7-3.3,5.3-6.8,7.6-10.5c2-3.2,4-3.9,7.8-2.8c31.8,8.7,63.2,7.9,93.4-6.4c4-1.9,7.9-4.1,11.6-6.5
		c2.3-1.5,3.9-1.5,6.3,0c19,12.3,39.8,19.6,62.5,20.6c25.3,1.1,48.2-6.4,69-20.4c2.5-1.7,4.1-1.7,6.6-0.2
		C327.2,28.6,362,33,398.7,23c4.7-1.3,7.8-0.7,10.5,3.5s7.8,7.6,8.1,11.7c0.3,3.8-4.4,7.9-6.7,11.9c-27.1,47.6-24.7,94.7,3.2,140.9
		c7.1,11.8,15.8,22.7,24.1,34.5c-4.9,5.3-10.1,11.3-15.6,16.9c-2,1.9-2.9,4.6-2.6,7.4c2.6,36.2-4.8,69.9-25.1,100.2
		c-17.2,25.7-41.5,42.4-70.1,53.4c-21.9,8.4-44.8,12.5-68.1,14.8c-2.3,0.3-4.4,1.2-6.2,2.7c-9,7.7-17.8,15.7-26.9,23.7
		c-4.3-3.6-8.7-7.5-13.3-11.2c-5.2-4.4-10.4-8.8-15.8-12.9c-2-1.4-4.3-2.2-6.8-2.4c-36.2-2.8-70.2-12.3-100.4-33.1
		c-32.8-22.6-51.3-54.2-57.8-93.1c-2.5-14.9-2.7-29.8-2.4-44.9c0-2-0.7-3.9-2-5.5C19.8,235.6,14.5,229.8,9.8,224.6z M401.1,241.8
		H45.6c-2.3,14.9-2.2,30,0.6,44.9c5.3,30.4,19.2,55.9,43.4,75.5c22.1,18,48,27.4,75.6,32.6c35.1,6.6,70.4,7,105.8,2.4
		c24.5-3.2,48-9.9,69.8-22.1C395.5,344.1,408.4,285.2,401.1,241.8L401.1,241.8z M152.8,24.9c-14.3,11.8-31.2,16.7-49.2,18.5
		c-17.8,1.8-35.4-0.2-53.2-4c25.7,46.7,27.9,93.8,6,141.7h332.4c-23-48.1-14.7-94.5,6-139.6c-14.2,0.8-28.2,2.3-42.3,2.3
		c-22.2,0-43.3-4.3-60.9-18.8C245.3,54.7,199.2,52.8,152.8,24.9z M291.8,209.8c3.4-3.8,4-9.3,1.7-13.8c-2.1-4.5-5.8-6.9-11.1-6.4
		c-3.2,0.3-6.4,0.1-9.6,0.1h-12.5v45c9,0,17.5,0.2,25.9-0.1c2.1-0.1,4.4-1.7,6-3.2C298,225.4,297.8,217.5,291.8,209.8L291.8,209.8z
		 M235.4,198.3c-2.5-7.1-9.7-11.1-17.5-9.9c-9.9,1.5-15.8,7.2-17.5,17.2c-1.7,9.5-0.8,18.3,6.6,25.3c8.4,8,25.1,5.7,28.3-5.4l-7-4.3
		c-6.6,6.1-14.6,5.8-17.7-0.8c-3-5.8-2.6-12.8,0.9-18.3c2.4-3.9,7.4-5.7,11.1-4c2,1,3.7,2.7,5.8,4.2L235.4,198.3z M148.1,189.9v44.6
		h10.6v-18.3h12.1V206h-12.1v-7.8h22.1v-8.3H148.1z"/>
	<path class="st0" d="M291.6,31.4c-0.1,1-0.1,1.5-0.1,2.1l-0.2,139.9c0,0.4-0.2,1,0,1.2c0.7,0.9,1.6,2.4,2.4,2.4
		c4.4,0.2,8.8,0.1,13.6,0.1c0.1-1.9,0.3-3.6,0.3-5.2c0-18.2,0-36.4-0.1-54.6c-0.1-24.6-0.2-49.1-0.3-73.7c0-1.5-0.3-3.7-1.3-4.4
		C301.5,36.6,296.7,34.2,291.6,31.4z M273.2,40.3c-4.7,1.7-8.6,3.3-12.8,4.4c-3.1,0.8-4,2.3-4,5.5c0.1,40.8,0,81.6,0,122.4
		c0,1.5,0.1,2.9,0.2,4.4h16.5V40.3z M325.9,45.7v4.5c-0.1,25.3-0.1,50.6-0.2,75.9c0,15.6,0.1,31.1-0.1,46.7c0,3.7,1.1,5,4.7,4.6
		c2.5-0.3,5-0.3,7.5,0c4,0.5,5.1-1,5.1-5c-0.2-40-0.2-80-0.3-120c0-1.3-0.1-2.7-0.2-4.1L325.9,45.7z M63.7,177.3
		c18.4,0,36.9,0,55.3,0c2.6,0,2.9-1.3,2.9-3.4c0-11.5-0.1-23,0-34.6c0-2.6-0.7-3.7-3.5-3.6c-13.6,0.1-27.2,0.2-40.8,0.1
		c-2.5,0-3.5,0.9-3.8,3.2c-0.3,2.7-0.7,5.5-1.4,8.2C69.6,157,66.7,166.9,63.7,177.3z M121.7,44.6c-21.1,5.1-41.9,4.2-63.2,0.8
		c0.8,1.8,1.4,2.9,1.8,4.1c3.8,11.1,7.9,22.2,11.4,33.4c0.9,3.1,2,3.9,5,3.8c13.6-0.1,27.2-0.1,40.8-0.1c1.3,0,2.7-0.2,4.2-0.2
		L121.7,44.6z M170.7,177h49.4v-41h-49.4L170.7,177z M220.1,86.6v-36c-17.4-0.5-33.6-4.7-49.6-11.5v47.5L220.1,86.6z M223.9,50.9
		V177h14.3V49.9L223.9,50.9z M382.1,177.3c-18.6-44.7-12.5-88,5.7-130.9c-7.6,0.6-14.6,1.4-21.6,1.6c-3.5,0.1-4.7,1-4.7,4.8
		c0.1,26.9,0,53.9,0,80.8c0,13.3,0,26.7,0,40c0,1.7-0.5,3.8,2.5,3.8C369.9,177.2,375.8,177.3,382.1,177.3z"/>
	<path class="st0" d="M300.3,245.9h51.3c0.1,1.6,0.2,3.1,0.2,4.5c0,36.2,0,72.5-0.1,108.7c-0.1,1.9-0.9,3.8-2.4,5.1
		c-14.4,10.5-30.5,17.4-47.5,22.2c-0.5,0-1,0-1.5-0.1L300.3,245.9z"/>
	<path class="st0" d="M147.3,385.8c-0.9,0-1.7-0.1-2.6-0.2c-16.4-5-32-11.7-45.9-21.8c-1.3-1-2.7-3-2.7-4.5
		C96,322.2,96,285.1,96,248.1c0-0.6,0.1-1.3,0.2-1.9c0.9-0.2,1.8-0.3,2.8-0.4c15,0,30,0,45-0.1c2.5,0,3.8,0.4,3.8,3.3
		c-0.1,44.8-0.1,89.7-0.1,134.5C147.6,384.3,147.5,385.1,147.3,385.8z"/>
	<path class="st0" d="M198,395.2v-34.1c17.2,9,34,9.1,51.1-0.6v34.8H198z"/>
	<path class="st0" d="M249,246.1v31.3c-16.7-9.1-33.6-9.6-50.8-0.5v-30.8H249z"/>
	<path class="st0" d="M181.5,340.1c7.5-1.1,12.8-4,17.2-8.9c1-0.7,2.3-1,3.5-0.6c11.6,3.5,16.2,1.6,21.5-9c1.7-3.4,7.8-5.5,11.6-4
		c4.9,1.9,8.2,10.5,5.7,15.1c-5.9,10.9-15.9,15.9-27.2,18.9c-3.5,0.9-7.1,1.5-10.7,1.8c-3.6,0.2-8.3,1.2-10.8-0.6
		C188,349.5,185,344.4,181.5,340.1z"/>
	<path class="st0" d="M265,337.3c-4.2-9.4-11.1-11.5-19.6-9.9c-1.1-2.5-1.9-4.7-3-6.7c-3.4-6.2-9.2-8.4-15.5-5.2
		c-3.7,1.9-5.9,0.9-7.3-2.2c-1.5-3.4-3.2-7.2-3.1-10.8c0.1-6.3,5.3-10.2,11.6-10.1c12.1,0.3,21.7,5.9,29.7,14.6
		c2.6,2.8,4.6,6.3,7,9.2C270.5,322.9,268.4,329.5,265,337.3z"/>
	<path class="st0" d="M218.4,273.6c-4.5,6.5-3.9,12,1.1,17.2c-0.3,0.5-0.5,0.9-0.8,1.4c-7.2,9-7.1,16.5,0.7,25.2
		c1.8,1.9,1.7,3.3,0.6,5.4c-4.2,7.9-15.9,8.7-21.1,1.3c-9.2-13-7-30.1-0.3-43c0.2-0.5,0.6-0.9,1-1.3
		C205.1,276.2,211.6,274.1,218.4,273.6z"/>
	<path class="st0" d="M198.5,357.4c6.9-1.4,13.2-2.4,19.4-4.1c11.7-3.3,21-9.7,26.6-20.9c0.7-1.4,3.3-2.3,5.1-2.4
		c6.5-0.5,11.1,2.9,12.9,9.3c0.3,1.3,0.2,2.7-0.4,3.8c-11.3,20.7-42.3,28.5-62.2,15.7C199.4,358.4,198.9,357.9,198.5,357.4z"/>
	<path class="st0" d="M267.9,314.9c-1.6-2.1-3.2-4.3-4.9-6.4c-9.5-11.8-21.3-19.2-37.1-19.1c-4.2,0.2-7.7-3-7.9-7.2
		c0-0.3,0-0.5,0-0.8c0.3-4.5,4.8-8.5,9.2-8.1c19.1,1.9,35,15.3,40,33.8c0.7,2.4,1,5,1.5,7.4L267.9,314.9z"/>
	<path class="st0" d="M192.8,285.3c-1,5-2,9.3-2.7,13.6c-1.4,9,0.6,18.2,5.7,25.8c1.7,2.5,1.5,4-0.6,6c-3.4,3.1-7.1,5.5-11.8,5.4
		c-1.7-0.2-3.1-1.1-4-2.5c-6-14.6-0.6-36.8,11.4-47.1C191.5,286,192.1,285.6,192.8,285.3z"/>
	<path class="st0" d="M291.6,31.4c5.1,2.8,9.9,5.2,14.4,8c1,0.6,1.3,2.9,1.3,4.4c0.1,24.6,0.2,49.1,0.3,73.7
		c0,18.2,0.1,36.4,0.1,54.6c0,1.6-0.2,3.2-0.3,5.2c-4.8,0-9.2,0.1-13.6-0.1c-0.9,0-1.7-1.5-2.4-2.4c-0.2-0.3,0-0.8,0-1.2l0.2-139.9
		C291.5,33,291.5,32.4,291.6,31.4z"/>
	<path class="st0" d="M273.2,40.3v136.8h-16.5c-0.1-1.5-0.2-2.9-0.2-4.4c0-40.8,0.1-81.6,0-122.4c0-3.2,0.9-4.7,4-5.5
		C264.5,43.6,268.5,41.9,273.2,40.3z"/>
	<path class="st0" d="M325.9,45.7l16.5,2.4c0.1,1.4,0.2,2.8,0.2,4.1c0.1,40,0.1,80,0.3,120.1c0,4-1.1,5.5-5.1,5
		c-2.5-0.3-5-0.3-7.5,0c-3.6,0.4-4.8-0.8-4.7-4.6c0.2-15.6,0.1-31.1,0.1-46.7c0-25.3,0.1-50.6,0.2-75.9L325.9,45.7z"/>
	<path class="st0" d="M223.9,50.9l14.3-1v127h-14.3V50.9z"/>
	<path class="st0" d="M382.1,177.3c-6.3,0-12.2-0.1-18.1,0c-3,0-2.4-2-2.5-3.8c0-13.3,0-26.7,0-40c0-26.9,0.1-53.9,0-80.8
		c0-3.7,1.2-4.6,4.7-4.8c7-0.2,14.1-1,21.6-1.6C369.6,89.3,363.5,132.6,382.1,177.3z"/>
	<path class="st0" d="M269.3,226c-1.3-11.7-1.3-11.8,9.6-11.6c2.1,0,4.8,0.4,6.1,1.7c1.5,1.7,2.2,3.9,1.9,6.1
		c-0.2,1.5-2.6,3.5-4.2,3.6C278.4,226.4,273.9,226,269.3,226z"/>
	<path class="st0" d="M269.7,197.8c4,0,7.8,0,11.5,0c2.6,0,4.7,1.4,4.1,4c-0.4,1.7-2.3,3.5-4,4.3s-3.8,0.2-5.7,0.2
		C268.3,206.3,269.7,203,269.7,197.8z"/>
</g>
</svg>
