<svg xmlns="http://www.w3.org/2000/svg" viewBox="0 0 447.71 453.21">
  <defs>
    <style>
      .cls-1 {
        fill: #fff;
      }
    </style>
  </defs>
  <g id="Calque_2" data-name="Calque 2">
    <g id="Calque_1-2" data-name="Calque 1">
      <g>
        <path d="M0,223.68c13.34-15.83,25.53-32.21,34.17-51,9.33-20.29,14.46-41.46,13-63.81A115.83,115.83,0,0,0,29,53.72c-3.09-4.87-6.36-9.62-9.82-14.82l17.92-25c6.76,1.71,13.35,3.73,20.07,5,26.08,4.91,51.63,3.75,76.05-7.67A172.74,172.74,0,0,0,149.75,2c2.31-1.41,3.85-1.42,6.12.13a123.94,123.94,0,0,0,48,20.06,100.26,100.26,0,0,0,59.48-7.06C272.87,11,281.71,5.22,291.19,0c36.43,24.05,78.09,26.85,116.11,13.18l19.78,25.58A127.46,127.46,0,0,0,403.6,83.17c-10.27,34.75-5.21,67.71,12.65,98.71,6.3,10.94,14.39,20.87,21.8,31.15,3,4.12,6.32,8,9.66,12.13-6.22,6.81-12.63,13.67-18.82,20.73A8,8,0,0,0,427,251c.85,23.67-1.57,46.87-9.63,69.29-13.37,37.15-38,64.32-73.12,82.08-21.06,10.65-43.46,17-66.79,20.2-6.7.93-13.44,1.54-20.12,2.6a9.8,9.8,0,0,0-4.47,2.64c-8.85,7.93-17.68,15.88-26.36,24-2.09,1.95-3.35,1.93-5.51,0-9.2-8.05-18.63-15.84-27.87-23.85-3.14-2.73-6.83-3.21-10.68-3.52a213.87,213.87,0,0,1-79.59-22,150.67,150.67,0,0,1-45-33.92c-18.6-20.68-29.83-45-34.78-72.31A210.32,210.32,0,0,1,20,250.36a10.06,10.06,0,0,0-3.2-8.05C11.05,236.35,5.67,230,0,223.68Zm9.54,1c4.67,5.22,10,11,15.13,17.06a9,9,0,0,1,2,5.47c-.26,15-.08,30,2.43,44.85,6.57,39,25,70.56,57.83,93.12,30.2,20.77,64.2,30.28,100.39,33.05a13.55,13.55,0,0,1,6.75,2.37c5.45,4.06,10.6,8.52,15.83,12.88,4.53,3.76,9,7.6,13.27,11.22,9-8,17.86-16,26.88-23.73a11.86,11.86,0,0,1,6.16-2.71c23.28-2.31,46.16-6.38,68.1-14.81,28.57-11,52.84-27.71,70.09-53.38,20.36-30.31,27.79-64,25.14-100.19a8.56,8.56,0,0,1,2.56-7.37c5.49-5.63,10.69-11.55,15.59-16.89-8.32-11.81-17-22.67-24.13-34.49C385.71,145,383.23,97.9,410.36,50.33c2.3-4,7-8.16,6.66-11.91-.37-4.1-5.52-7.63-8.12-11.71s-5.76-4.82-10.49-3.53Q343.51,38.11,294,9.79c-2.5-1.43-4.19-1.42-6.65.24-20.81,14.08-43.68,21.59-69,20.44-22.72-1-43.47-8.33-62.48-20.61-2.39-1.54-4-1.52-6.28,0A101.54,101.54,0,0,1,138,16.32C107.7,30.64,76.39,31.4,44.55,22.7c-3.85-1.06-5.84-.36-7.83,2.84A108.39,108.39,0,0,1,29.15,36c-1.79,2.24-1.59,3.9.05,6.22A133.51,133.51,0,0,1,46.62,75.16c12.94,36.87,8.13,72.35-9.7,106.18C29.09,196.21,19,209.88,9.54,224.71Z"/>
        <path class="cls-1" d="M9.54,224.71c9.46-14.83,19.55-28.5,27.38-43.37C54.75,147.51,59.56,112,46.62,75.16A133.51,133.51,0,0,0,29.2,42.21c-1.64-2.32-1.84-4-.05-6.22a108.39,108.39,0,0,0,7.57-10.45c2-3.2,4-3.9,7.83-2.84,31.84,8.7,63.15,7.94,93.45-6.38a101.54,101.54,0,0,0,11.61-6.5c2.3-1.48,3.89-1.5,6.28,0,19,12.28,39.76,19.59,62.48,20.61,25.31,1.15,48.18-6.36,69-20.44,2.46-1.66,4.15-1.67,6.65-.24q49.38,28.42,104.4,13.39c4.73-1.29,7.8-.69,10.49,3.53s7.75,7.61,8.12,11.71c.33,3.75-4.36,7.87-6.66,11.91C383.23,97.9,385.71,145,413.53,191.16c7.11,11.82,15.81,22.68,24.13,34.49-4.9,5.34-10.1,11.26-15.59,16.89a8.56,8.56,0,0,0-2.56,7.37c2.65,36.15-4.78,69.88-25.14,100.19-17.25,25.67-41.52,42.41-70.09,53.38-21.94,8.43-44.82,12.5-68.1,14.81A11.86,11.86,0,0,0,250,421c-9,7.74-17.84,15.71-26.88,23.73-4.27-3.62-8.74-7.46-13.27-11.22-5.23-4.36-10.38-8.82-15.83-12.88a13.55,13.55,0,0,0-6.75-2.37C151.1,415.49,117.1,406,86.9,385.21,54.09,362.65,35.64,331,29.07,292.09c-2.51-14.87-2.69-29.83-2.43-44.85a9,9,0,0,0-2-5.47C19.58,235.73,14.21,229.93,9.54,224.71Zm391.3,17.19H45.35a133.2,133.2,0,0,0,.57,44.86c5.26,30.42,19.22,55.92,43.36,75.51,22.13,18,48,27.43,75.6,32.64,35.1,6.63,70.42,7,105.76,2.37,24.51-3.19,48-9.89,69.75-22.14C395.28,344.2,408.14,285.36,400.84,241.9ZM152.52,25.05c-14.33,11.81-31.2,16.67-49.16,18.48-17.8,1.8-35.39-.24-53.21-4,25.69,46.66,27.85,93.76,6,141.7H388.54c-23-48.06-14.71-94.49,6-139.56C380.38,42.47,366.29,44,352.2,44c-22.16,0-43.34-4.3-60.94-18.81C245,54.8,198.92,52.93,152.52,25.05Zm139,184.88a12.26,12.26,0,0,0,1.69-13.81c-2.1-4.51-5.79-6.85-11.08-6.4-3.17.27-6.38.05-9.58.06H260.05v45c9,0,17.45.21,25.88-.15,2.06-.09,4.43-1.67,6-3.24C297.79,225.54,297.55,217.66,291.48,209.93Zm-56.4-11.56c-2.48-7.06-9.74-11.05-17.46-9.89-9.94,1.49-15.76,7.24-17.52,17.21-1.67,9.47-.75,18.34,6.63,25.32,8.43,8,25.06,5.68,28.34-5.39l-7-4.3c-6.65,6.12-14.58,5.8-17.68-.82a18.49,18.49,0,0,1,.9-18.29c2.41-3.92,7.37-5.71,11.15-4,2,1,3.74,2.68,5.75,4.18ZM147.83,190v44.63h10.63V216.29h12.15V206.11H158.54v-7.8h22.05V190Z"/>
        <path d="M400.84,241.9c7.3,43.46-5.56,102.3-60.45,133.24-21.74,12.25-45.24,18.95-69.75,22.14-35.34,4.61-70.66,4.26-105.76-2.37-27.6-5.21-53.47-14.69-75.6-32.64-24.14-19.59-38.1-45.09-43.36-75.51a133.2,133.2,0,0,1-.57-44.86ZM300,246V386.52a6,6,0,0,0,1.5.08c17-4.87,33.18-11.71,47.54-22.25a7.17,7.17,0,0,0,2.4-5.08c.15-36.23.12-72.47.12-108.7,0-1.48-.16-2.95-.25-4.53ZM147.08,385.89a15.67,15.67,0,0,0,.31-2.17q0-67.25.12-134.51c0-3-1.31-3.35-3.78-3.34-15,.08-30,0-45,.06a20.37,20.37,0,0,0-2.78.37,18.67,18.67,0,0,0-.21,1.87c0,37.07,0,74.13.11,111.2,0,1.52,1.38,3.53,2.71,4.49,14,10.1,29.56,16.79,45.93,21.82A12.48,12.48,0,0,0,147.08,385.89Zm50.63,9.46h51.06V360.57c-17.05,9.73-33.87,9.67-51.06.65Zm51-149.11H197.92V277c17.26-9.13,34.07-8.63,50.81.52Zm-67.5,94c3.55,4.3,6.54,9.36,10.89,12.59,2.42,1.8,7.12.83,10.76.59a56.6,56.6,0,0,0,10.66-1.75c11.31-3,21.36-8,27.22-18.85,2.51-4.66-.73-13.19-5.68-15.13-3.84-1.51-10,.58-11.65,4-5.29,10.66-9.85,12.53-21.5,9a4.08,4.08,0,0,0-3.51.65C194,336.23,188.76,339.17,181.23,340.25Zm83.51-2.85c3.37-7.76,5.5-14.41-.05-21.07-2.48-3-4.44-6.41-7.05-9.24-8-8.67-17.59-14.32-29.73-14.6-6.35-.15-11.46,3.8-11.61,10.07-.09,3.6,1.63,7.4,3.14,10.84,1.36,3.09,3.56,4.1,7.28,2.22,6.3-3.18,12.05-1,15.47,5.17,1.13,2,1.9,4.25,3,6.71C253.61,325.93,260.56,328,264.74,337.4ZM218.1,273.76A39.06,39.06,0,0,0,199.28,280a3.31,3.31,0,0,0-1,1.27c-6.71,12.95-8.86,30.07.33,43,5.2,7.35,16.94,6.58,21.13-1.32,1.1-2.08,1.11-3.48-.64-5.42-7.83-8.69-7.93-16.15-.71-25.17a14.2,14.2,0,0,0,.83-1.35C214.17,285.81,213.58,280.27,218.1,273.76Zm-19.88,83.79a15.44,15.44,0,0,0,1.46,1.33c19.88,12.8,50.92,5,62.17-15.67a5.61,5.61,0,0,0,.43-3.84c-1.78-6.39-6.37-9.77-12.91-9.27-1.79.13-4.41,1.06-5.1,2.41-5.68,11.15-15,17.63-26.63,20.89C211.46,355.12,205.07,356.11,198.22,357.55ZM267.62,315l.94-.39c-.5-2.48-.86-5-1.53-7.43a46.11,46.11,0,0,0-40-33.78c-4.38-.42-8.9,3.56-9.21,8.11a7.56,7.56,0,0,0,7.9,8c15.73-.18,27.54,7.22,37.05,19.06C264.43,310.7,266,312.88,267.62,315ZM192.56,285.4a14,14,0,0,0-1.93,1.09c-11.92,10.3-17.36,32.47-11.36,47.07a5.33,5.33,0,0,0,4,2.55c4.69.19,8.4-2.21,11.75-5.35,2.09-1.95,2.25-3.41.59-5.95a36,36,0,0,1-5.69-25.76C190.55,294.71,191.57,290.42,192.56,285.4Z"/>
        <path d="M152.52,25.05c46.4,27.88,92.45,29.75,138.74.1C308.86,39.66,330,43.92,352.2,44c14.09,0,28.18-1.49,42.35-2.31-20.72,45.07-29,91.5-6,139.56H56.18c21.82-47.94,19.66-95-6-141.7,17.82,3.78,35.41,5.82,53.21,4C121.32,41.72,138.19,36.86,152.52,25.05Zm138.84,6.48c-.07,1-.15,1.55-.15,2.1L291,173.55c0,.42-.17,1,0,1.23.74.91,1.56,2.41,2.41,2.45,4.41.25,8.84.12,13.63.12.12-1.95.3-3.57.3-5.19q0-27.28-.06-54.56-.09-36.84-.28-73.7c0-1.5-.34-3.74-1.33-4.36C301.23,36.69,296.44,34.3,291.36,31.53ZM272.9,40.4c-4.69,1.66-8.65,3.31-12.76,4.43-3.08.84-4,2.32-3.95,5.51.1,40.82,0,81.63,0,122.44,0,1.46.13,2.92.2,4.39H272.9Zm52.71,5.4v4.49q-.09,37.92-.18,75.86c0,15.56.1,31.13-.12,46.69-.05,3.73,1.09,5,4.73,4.57a33.5,33.5,0,0,1,7.49,0c4,.47,5.13-1,5.11-5-.19-40-.19-80-.26-120,0-1.34-.14-2.67-.23-4.1ZM63.41,177.37c18.42,0,36.87,0,55.33,0,2.63,0,2.88-1.31,2.87-3.37,0-11.52-.09-23,0-34.57,0-2.63-.66-3.68-3.49-3.65q-20.4.21-40.82.05c-2.51,0-3.48.91-3.8,3.2a60.48,60.48,0,0,1-1.4,8.16C69.34,157.16,66.4,167.05,63.41,177.37Zm58-132.69c-21.12,5.13-41.88,4.22-63.15.78.8,1.83,1.36,2.93,1.76,4.09,3.85,11.1,7.89,22.16,11.36,33.38.94,3.06,2,3.86,5,3.82,13.61-.14,27.22-.06,40.83-.08,1.34,0,2.68-.15,4.18-.23Zm49.05,132.39h49.4v-41h-49.4Zm49.43-90.33v-36c-17.37-.49-33.61-4.65-49.56-11.52V86.74ZM223.69,51V177.07H238V50ZM381.8,177.38c-18.58-44.67-12.5-88,5.74-130.87-7.57.59-14.6,1.36-21.64,1.59-3.53.11-4.72,1-4.7,4.75.14,26.93,0,53.87,0,80.81q0,20,0,40c0,1.73-.5,3.78,2.45,3.75C369.6,177.32,375.53,177.38,381.8,177.38Z"/>
        <path d="M291.48,209.93c6.07,7.73,6.31,15.61.44,21.49-1.56,1.57-3.93,3.15-6,3.24-8.43.36-16.88.15-25.88.15v-45h12.46c3.2,0,6.41.21,9.58-.06,5.29-.45,9,1.89,11.08,6.4A12.26,12.26,0,0,1,291.48,209.93ZM269,226.15c4.67,0,9.12.33,13.46-.17,1.59-.18,3.93-2.18,4.18-3.64a7.94,7.94,0,0,0-1.89-6.13c-1.33-1.3-4-1.63-6.11-1.67C267.68,214.33,267.68,214.41,269,226.15Zm.39-28.21c-2,7.63-1.41,8.47,5.82,8.47,1.94,0,4.13.53,5.73-.21s3.61-2.6,4-4.3c.61-2.59-1.51-3.91-4.08-4C277.15,197.9,273.43,197.94,269.4,197.94Z"/>
        <path d="M235.08,198.37l-6.9,4.07c-2-1.5-3.7-3.22-5.75-4.18-3.78-1.76-8.74,0-11.15,4a18.49,18.49,0,0,0-.9,18.29c3.1,6.62,11,6.94,17.68.82l7,4.3c-3.28,11.07-19.91,13.37-28.34,5.39-7.38-7-8.3-15.85-6.63-25.32,1.76-10,7.58-15.72,17.52-17.21C225.34,187.32,232.6,191.31,235.08,198.37Z"/>
        <path d="M147.83,190h32.76v8.36H158.54v7.8h12.07v10.18H158.46v18.29H147.83Z"/>
        <path class="cls-1" d="M300,246H351.3c.09,1.58.25,3.05.25,4.53,0,36.23,0,72.47-.12,108.7a7.17,7.17,0,0,1-2.4,5.08c-14.36,10.54-30.5,17.38-47.54,22.25a6,6,0,0,1-1.5-.08Z"/>
        <path class="cls-1" d="M147.08,385.89a12.48,12.48,0,0,1-2.57-.21c-16.37-5-32-11.72-45.93-21.82-1.33-1-2.71-3-2.71-4.49-.15-37.07-.12-74.13-.11-111.2A18.67,18.67,0,0,1,96,246.3a20.37,20.37,0,0,1,2.78-.37c15,0,30,0,45-.06,2.47,0,3.79.36,3.78,3.34q-.13,67.26-.12,134.51A15.67,15.67,0,0,1,147.08,385.89Z"/>
        <path class="cls-1" d="M197.71,395.35V361.22c17.19,9,34,9.08,51.06-.65v34.78Z"/>
        <path class="cls-1" d="M248.73,246.24v31.3c-16.74-9.15-33.55-9.65-50.81-.52V246.24Z"/>
        <path class="cls-1" d="M181.23,340.25c7.53-1.08,12.79-4,17.19-8.89a4.08,4.08,0,0,1,3.51-.65c11.65,3.49,16.21,1.62,21.5-9,1.68-3.39,7.81-5.48,11.65-4,4.95,1.94,8.19,10.47,5.68,15.13-5.86,10.89-15.91,15.86-27.22,18.85a56.6,56.6,0,0,1-10.66,1.75c-3.64.24-8.34,1.21-10.76-.59C187.77,349.61,184.78,344.55,181.23,340.25Z"/>
        <path class="cls-1" d="M264.74,337.4c-4.18-9.41-11.13-11.47-19.57-9.9-1.08-2.46-1.85-4.69-3-6.71-3.42-6.16-9.17-8.35-15.47-5.17-3.72,1.88-5.92.87-7.28-2.22-1.51-3.44-3.23-7.24-3.14-10.84.15-6.27,5.26-10.22,11.61-10.07,12.14.28,21.74,5.93,29.73,14.6,2.61,2.83,4.57,6.26,7.05,9.24C270.24,323,268.11,329.64,264.74,337.4Z"/>
        <path class="cls-1" d="M218.1,273.76c-4.52,6.51-3.93,12.05,1.09,17.25a14.2,14.2,0,0,1-.83,1.35c-7.22,9-7.12,16.48.71,25.17,1.75,1.94,1.74,3.34.64,5.42-4.19,7.9-15.93,8.67-21.13,1.32-9.19-13-7-30.1-.33-43a3.31,3.31,0,0,1,1-1.27A39.06,39.06,0,0,1,218.1,273.76Z"/>
        <path class="cls-1" d="M198.22,357.55c6.85-1.44,13.24-2.43,19.42-4.15,11.68-3.26,21-9.74,26.63-20.89.69-1.35,3.31-2.28,5.1-2.41,6.54-.5,11.13,2.88,12.91,9.27a5.61,5.61,0,0,1-.43,3.84c-11.25,20.68-42.29,28.47-62.17,15.67A15.44,15.44,0,0,1,198.22,357.55Z"/>
        <path class="cls-1" d="M267.62,315c-1.62-2.15-3.19-4.33-4.88-6.43-9.51-11.84-21.32-19.24-37.05-19.06a7.56,7.56,0,0,1-7.9-8c.31-4.55,4.83-8.53,9.21-8.11a46.11,46.11,0,0,1,40,33.78c.67,2.43,1,5,1.53,7.43Z"/>
        <path class="cls-1" d="M192.56,285.4c-1,5-2,9.31-2.67,13.65a36,36,0,0,0,5.69,25.76c1.66,2.54,1.5,4-.59,5.95-3.35,3.14-7.06,5.54-11.75,5.35a5.33,5.33,0,0,1-4-2.55c-6-14.6-.56-36.77,11.36-47.07A14,14,0,0,1,192.56,285.4Z"/>
        <path class="cls-1" d="M291.36,31.53c5.08,2.77,9.87,5.16,14.37,8,1,.62,1.32,2.86,1.33,4.36q.22,36.85.28,73.7.06,27.28.06,54.56c0,1.62-.18,3.24-.3,5.19-4.79,0-9.22.13-13.63-.12-.85,0-1.67-1.54-2.41-2.45-.2-.26,0-.81,0-1.23l.18-139.92C291.21,33.08,291.29,32.53,291.36,31.53Z"/>
        <path class="cls-1" d="M272.9,40.4V177.17H256.42c-.07-1.47-.2-2.93-.2-4.39,0-40.81.07-81.62,0-122.44,0-3.19.87-4.67,3.95-5.51C264.25,43.71,268.21,42.06,272.9,40.4Z"/>
        <path class="cls-1" d="M325.61,45.8l16.54,2.43c.09,1.43.23,2.76.23,4.1.07,40,.07,80,.26,120.05,0,4-1.09,5.51-5.11,5a33.5,33.5,0,0,0-7.49,0c-3.64.41-4.78-.84-4.73-4.57.22-15.56.09-31.13.12-46.69q.07-37.93.18-75.86Z"/>
        <path class="cls-1" d="M63.41,177.37c3-10.32,5.93-20.21,8.7-30.14a60.48,60.48,0,0,0,1.4-8.16c.32-2.29,1.29-3.22,3.8-3.2q20.41.16,40.82-.05c2.83,0,3.51,1,3.49,3.65-.1,11.52-.06,23.05,0,34.57,0,2.06-.24,3.38-2.87,3.37C100.28,177.33,81.83,177.37,63.41,177.37Z"/>
        <path class="cls-1" d="M121.44,44.68V86.44c-1.5.08-2.84.23-4.18.23-13.61,0-27.22-.06-40.83.08-3,0-4.08-.76-5-3.82C67.94,71.71,63.9,60.65,60.05,49.55c-.4-1.16-1-2.26-1.76-4.09C79.56,48.9,100.32,49.81,121.44,44.68Z"/>
        <path class="cls-1" d="M170.49,177.07v-41h49.4v41Z"/>
        <path class="cls-1" d="M219.92,86.74H170.36V39.26c15.95,6.87,32.19,11,49.56,11.52Z"/>
        <path class="cls-1" d="M223.69,51,238,50v127H223.69Z"/>
        <path class="cls-1" d="M381.8,177.38c-6.27,0-12.2-.06-18.14,0-3,0-2.44-2-2.45-3.75q0-20,0-40c0-26.94.13-53.88,0-80.81,0-3.73,1.17-4.64,4.7-4.75,7-.23,14.07-1,21.64-1.59C369.3,89.41,363.22,132.71,381.8,177.38Z"/>
        <path class="cls-1" d="M269,226.15c-1.33-11.74-1.33-11.82,9.64-11.61,2.1,0,4.78.37,6.11,1.67a7.94,7.94,0,0,1,1.89,6.13c-.25,1.46-2.59,3.46-4.18,3.64C278.13,226.48,273.68,226.15,269,226.15Z"/>
        <path class="cls-1" d="M269.4,197.94c4,0,7.75,0,11.48,0,2.57,0,4.69,1.36,4.08,4-.4,1.7-2.31,3.53-4,4.3s-3.79.2-5.73.21C268,206.41,269.4,203.14,269.4,197.94Z"/>
      </g>
    </g>
  </g>
</svg>
