<?xml version="1.0" encoding="utf-8"?>
<!-- Generator: Adobe Illustrator 26.0.1, SVG Export Plug-In . SVG Version: 6.00 Build 0)  -->
<svg version="1.1" id="Calque_1" xmlns="http://www.w3.org/2000/svg" xmlns:xlink="http://www.w3.org/1999/xlink" x="0px" y="0px"
	 viewBox="0 0 503.7 503.9" style="enable-background:new 0 0 503.7 503.9;" xml:space="preserve">
<style type="text/css">
	.st0{fill:#FFFFFF;}
</style>
<g id="Calque_2_00000150097319589215373070000004873693216592468616_">
	<g id="Calque_1-2">
		<g>
			<path class="st0" d="M0,252C0.1,109,117.1-4.7,260.6,0.1c69,2.3,128,29.2,175.3,79.8c45.1,48.3,67.7,106,67.8,172
				c0.2,142-116.2,256.9-261.4,251.9C107.9,499.1-0.2,388.5,0,252z M246.1,8.6C185.8,8.6,125.3,37,78.2,86.3s-69,108.8-66.3,176.9
				c5,124.8,111.7,234.9,251.7,228.7c124.9-5.5,234.2-111.6,228.2-251.5C486.4,113.6,389.7,8.6,246.1,8.6z"/>
			<path class="st0" d="M261.2,480.6C120.4,480.1,20.1,373,23.3,246.8C26.4,119.3,128.9,23.6,250.8,23.3
				C383.1,23,483.4,130.5,480.5,257.1c-1.5,64.1-26.2,119-73.3,162.7C363.6,460.3,311.3,479.7,261.2,480.6z M266.7,394.7
				c58.6,1.1,124.2-58.1,127.9-135.5c4.2-78.4-55.9-145.4-134.3-149.8c-81.9-4.7-147,58.2-151.2,135.1
				c-2.1,39.2,10.5,74.2,37.1,103.2C174.3,378.4,209.6,394.4,266.7,394.7z M81.7,344.2c0.2-0.5,0.4-1,0.7-1.5
				c8.1-7.6,16.2-15.1,24.2-22.8c0.9-0.8,1.9-2.6,1.6-3.3c-3.1-6.4-6.4-12.6-9.7-18.8c-0.5,0.1-1,0.2-1.4,0.3
				c-14.9,7.8-29.8,15.6-44.7,23.4c-2.7,1.4-3.4,2.9-1.6,5.5c1.2,1.7,2.2,3.6,2.9,5.6c1,2.7,2.5,2.8,4.6,1.6
				c10.7-5.8,21.4-11.6,32.1-17.4c1.3-0.7,2.7-1.1,4.9-2l-28,27.8c-5.6,5.5-5.5,5.5-1.9,12.6c1.1,2.1,2.4,2.6,4.5,2.2
				c13.7-2.8,27.3-5.5,41-8.2c0.6,0,1.3,0.2,1.9,0.4c-10.3,5.4-20.2,10.3-29.8,15.6c-12.2,6.7-10.1,2.5-4.9,14.3
				c1,2.4,2.6,3.2,5.3,1.7c14.5-7.7,29.1-15.3,43.6-23c0.8-0.7,1.3-1.9,1.1-3c-2.5-5.3-5.1-10.5-7.9-15.7c-0.6-1-1.7-1.5-2.8-1.6
				c-5.7,0.7-11.3,1.6-17,2.6C94.4,341.5,88.3,342.8,81.7,344.2L81.7,344.2z M193.4,419.4c2.1,13.3,4,26.1,6.2,38.8
				c0.5,1.6,1.6,2.9,3.1,3.6c3.9,1.6,8,2.8,12,4.1c2.5,0.8,4.1,0.3,5-2.7c3.8-12.5,7.7-24.9,11.8-37.4c3.9-11.8,4-11.7-5.4-15.3
				l-0.7-0.3c-2.5-0.8-4-0.1-4.8,2.5c-2,6.5-4,13.1-6.1,19.6l-4.2,13.6c-2-13.1-3.9-25.6-5.9-38.1c-0.3-1.6-1.2-3.9-2.5-4.5
				c-4.6-1.8-9.4-3.4-14.2-4.5c-0.9-0.2-2.8,1-3.1,1.9c-5.2,15.8-10.2,31.7-15.1,47.7c-0.3,1,0.9,3.1,1.9,3.6c2.3,1.1,5,1.4,7.4,2.4
				s3.6,0.1,4.3-2c1.4-4.4,2.8-8.7,4.2-13.1C189.3,432.8,191.3,426.2,193.4,419.4L193.4,419.4z M432,170.7
				c-9.6,9.3-18.4,18-27.5,26.5c-2.4,2.3-3.8,4.4-2.4,7.8c1.5,3.6,2.6,7.2,3.5,11c0.6,2.8,1.8,2.9,4.2,2.1
				c13.7-4.5,27.5-8.8,41.2-13.2c8.7-2.8,8.7-2.8,6-11.3c-0.2-0.5-0.3-1-0.3-1.5c-0.3-2.7-1.9-3.2-4.2-2.4c-7.2,2.4-14.5,4.6-21.7,7
				c-3.9,1.3-7.8,2.7-11.7,4.1c1.5-2.3,3.6-3.6,5.3-5.3c7.9-7.6,15.7-15.4,23.5-23.1c0.9-1,1.4-2.3,1.3-3.6
				c-1.5-5.3-3.3-10.6-5-15.9c-0.6,0.1-1.2,0.2-1.8,0.3c-14,4.5-28,8.9-42,13.4c-10,3.3-9.9,3.4-6.3,13.5c0.8,2.1,1.9,2.6,4,1.9
				c7.3-2.4,14.7-4.7,22-7.1C423.7,173.6,427.5,172.3,432,170.7z M404.7,339.7c0.4-0.2,0.8-0.3,1.3-0.4c12.8,0.6,25.6,1.3,38.4,1.7
				c2-0.2,3.9-1.2,5.1-2.8c2.3-3.4,3.9-7.2,5.9-10.8c1.2-2.1,0.7-3.5-1.3-4.6c-14.5-7.8-29-15.5-43.4-23.4c-2.4-1.3-3.5-0.4-4.5,1.4
				c-1.4,2.4-2.5,4.9-3.8,7.3c-0.9,1.7-0.6,2.6,1.2,3.6c7.2,3.7,14.3,7.6,21.4,11.4c3.1,1.6,6.1,3.2,9.2,4.9c-2.2,0.5-4.2,0-6.1,0
				c-10.9-0.4-21.7-0.8-32.5-0.8c-1.8,0-4.1,1.6-5.2,3.1c-2.2,3.1-3.5,6.9-5.6,10c-1.8,2.6-1.2,3.7,1.4,5.1
				c14.6,7.8,29,15.9,43.6,23.7c1.1,0.3,2.3,0.1,3.1-0.7c1.7-2.5,3.2-5,4.5-7.7c1.2-2.1,0.3-3.2-1.8-4.3
				C425.4,351,415.3,345.4,404.7,339.7z M176.7,80.1c0.5-0.9,1.1-1.7,1.7-2.6c4.5-5,2.8-10.3,0-15.2c-2.4-4.1-8.9-7-13.3-4.9
				c-9.9,4.5-19.6,9.6-29.3,14.6c-0.4,0.2-0.6,2-0.2,2.7c6.5,11.6,13,23.1,19.6,34.6c1.8,3.2,3.5,6.6,5.6,9.7
				c0.5,0.8,2.5,1.5,3.2,1.1c9.2-5.3,19.2-9.4,27.2-16.8c4-3.7,5.7-8.1,4-13.4c-1.9-5.8-5.7-9.7-11.8-10.6
				C181.3,79,179.2,79.8,176.7,80.1z M322.8,429l16.6-8.7c2.9,5.4,5.6,10.2,8.1,15.2c2.7,5.3,3.1,5.5,8.4,2.5
				c1.2-0.7,2.4-1.3,3.6-1.9c4.1-2,4.3-2.5,2.2-6.4c-6.7-12.6-13.5-25.2-20.2-37.8c-0.9-1.8-1.9-3.5-3.1-5.1c-0.8-0.8-1.9-1.2-2.9-1
				c-3,1.2-5.9,2.8-8.6,4.6c-0.9,0.6-1.7,2.9-1.2,3.8c2.1,4.6,4.5,9.2,7.1,13.5c1.1,1.8,1.2,2.8-0.8,3.8c-4.7,2.4-9.5,4.9-14.5,7.6
				c-2.9-5.4-5.6-10.7-8.6-15.8c-0.5-0.9-2.5-1.8-3.3-1.4c-3.2,1.4-6.2,3.1-9.1,5c-0.8,0.9-1,2.1-0.7,3.2c1.8,3.9,3.8,7.6,5.8,11.3
				c5.6,10.7,11.3,21.3,16.9,32c1.8,3.3,3,3.6,6.2,1.6c1.9-1.2,3.8-2.3,5.8-3.3c2.5-1.1,3.1-2.3,1.7-4.8
				C329,441.2,326.1,435.3,322.8,429z M354.7,126.6c2.9,3.2,5.4,5.8,7.8,8.7c1.7,2,3.1,1.9,5,0.2c3.5-3.4,7-6.7,10.7-9.9
				c0.9-0.8,2.9-1.5,3.6-1.1c1.7,1.2,3.7,2.5,2,5.5c-2,3.7-3.1,8-5.3,11.5c-3.7,5.9-2.3,10.3,2.9,14.3c1.8,1.4,3.3,3,5.2,4.8
				c0.8-1.6,1.2-2.3,1.5-3.1c2.4-6.3,4.7-12.6,7-18.9c0.6-1.5,0.9-3.2,3.3-2.4c5.5,2,10.4,0.2,14.5-3.4c5.9-4.9,9.6-12.2,3.7-19.9
				c-5.6-7.3-12.2-13.8-18-20.9c-2.4-2.8-4-2.4-6.4-0.2c-4.9,4.8-9.9,9.4-15,14.1C369.9,112.7,362.6,119.4,354.7,126.6z M263.4,93.2
				c-2.1-4.2-3.9-7.6-5.6-11.1c-6.4-13.2-12.7-26.3-19-39.6c-1.1-2.4-2.5-3.3-5.3-2.6c-3.2,0.6-6.4,1-9.6,1.1
				c-5.1,0.4-5.9,1-7.1,5.9c-1.3,5.8-2.6,11.7-4,17.5c-2.6,10.7-5.3,21.3-7.8,31.9c-0.2,0.8,0.9,2.8,1.3,2.8c3.9-0.1,7.7-0.4,11.5-1
				c0.8-0.1,1.6-1.8,1.9-2.9c2.5-9.5,2.5-9.6,12.5-10.2c0.9-0.1,1.8-0.1,2.6-0.2c8-0.9,8-0.9,11.2,6.8c0.5,1.1,1.9,2.6,2.9,2.6
				C253.6,94.2,258,93.6,263.4,93.2z M136,430.2c7.1,0,12.2-3.9,16.4-9.1c5.5-6.9,10.6-14.1,16.1-21c5.7-7.1,5.9-7-1.6-12.3
				c-4.7-3.3-4.8-3.1-8.3,1.6c-5.9,8-11.9,15.9-18.3,23.5c-1.9,2-4.3,3.3-6.9,3.8c-3.7,0.8-6.9-1.1-8.8-4.4c-2.4-4-0.7-7.9,1.7-11.1
				c6.5-8.7,13.1-17.2,20-25.6c1.6-2,1.3-2.9-0.4-4.2c-2.2-1.7-4.4-3.3-6.4-5.1c-2.2-2-3.8-2-5.8,0.6c-6.3,8.3-13,16.3-19.2,24.7
				c-3,4.2-6.1,8.7-5.5,14.4C110.2,417.8,124.2,430.1,136,430.2z M346,121.2c1.3-2.3,2.4-4.5,3.6-6.7s0.8-3.6-1.5-4.8
				c-4-2-8-4-11.8-6.3c-6.8-4-6.7-4-3.2-11.1c1-2.1,2-2.4,4.1-1.3c5.6,3,11.2,5.8,17.3,8.8l5-9.7c-5-2.6-9.5-5.1-14.2-7.4
				c-5.6-2.7-5.7-2.6-3-8.2c0.2-0.4,0.4-0.9,0.6-1.3c1.1-2.3,2.4-3,5-1.6c5.1,2.9,10.3,5.6,15.6,8c1.2,0.4,2.6,0.1,3.6-0.7
				c1.4-1.9,2.4-4,3.2-6.2c0.1-0.9-0.2-1.7-0.8-2.3c-10-5.3-20.1-10.4-30.1-15.7c-2.1-1.1-3-0.6-4,1.4c-6.7,13-13.6,26-20.3,39
				c-4,7.8-3.9,7.8,4,11.9C327.9,111.7,336.8,116.4,346,121.2L346,121.2z M407.3,385.2c-4.4,4-8.4,7.6-12.3,11.2
				c-6.3,5.9-6.2,5.8-11.9-0.6c-1.7-1.9-1.5-3.1,0.2-4.7c2.9-2.6,5.7-5.3,8.6-7.8c5.6-5,5.5-4.9,1-10.5c-2.2-2.7-3.7-2.4-5.9-0.2
				c-3.7,3.7-7.6,7.2-11.6,10.6c-0.8,0.6-2.8,1-3.4,0.5c-2-2.1-3.9-4.3-5.7-6.7c4.4-4,8.5-8,12.8-11.8c4.6-4.1,4.6-4.7,0.3-9.1
				c-0.5-0.4-0.9-0.8-1.3-1.3c-1.3-1.8-2.6-1.4-4-0.1c-7.9,7.4-15.8,14.8-23.9,22.1c-2.2,2-1.6,3.5,0.1,5.2c3.4,3.5,6.7,7,10,10.5
				c7.7,8.3,15.4,16.6,23.1,24.9c1.1,1.2,2.2,2.5,4,0.8c8.5-7.9,17-15.7,25.4-23.7c0.6-1,0.7-2.3,0.1-3.4
				C411.2,389.2,409.4,387.1,407.3,385.2L407.3,385.2z M72.4,140.1c0.4,2.3,0.5,4.7,1.3,6.9c3.1,8.8,9.7,14.6,17.8,18.8
				c7,3.5,14.4,5.2,21.9,1.9c8.2-3.6,13.6-10,16.7-18.2c2.3-6.2,1.2-12.3-2.6-17.7c-2.8-4.1-3.1-4-6.7-0.7c-1,1.1-2.1,2.1-3.2,3.1
				c-2.7,2-2.9,3.7-1,6.8c1.4,2.7,1.6,5.8,0.7,8.7c-1.1,3.1-4,5-8,4.9c-9.9-0.4-16.7-5.8-22.5-12.9c-2.8-3.4-2.2-7.3-0.2-10.9
				s5.3-4.3,9.1-3.7c2.3,0.4,3.5-0.6,4-2.8c0.3-1.1,0.7-2.1,1.2-3.1c2.8-6.9,2-8.1-5.6-8c-1.2,0-2.5,0.2-3.7,0.5
				C80.6,116.8,72.5,128.2,72.4,140.1z M242,436.8c1.4,5.4,2.2,11,4.4,16c3.1,7.1,8.4,12.5,16.4,14.6c7.7,2,14.8,0.3,21.8-2.9
				c6.4-3,9.2-8.5,10.5-15c0.5-2.5-0.1-4.2-3.2-4c-2.4,0.1-4.7,0.1-7.1-0.1c-2.8-0.3-4.2,0.6-4.3,3.6c0.1,3.7-2.6,6.8-6.2,7.5
				c-4.7,1.1-8.4-0.2-10.5-3.8c-4.1-6.7-5.9-14.6-5.2-22.5c0.3-4,2.2-7.2,6.3-8.4c4.4-1.3,7.3-0.1,10.6,3.8c0.7,0.7,1.8,1.1,2.8,1
				c3-1.1,5.9-2.5,8.7-4.2c0.7-0.4,1.3-2.6,0.8-3.2c-3.2-4.2-6.8-8-12.3-9.1C261.4,407.1,241.5,417.4,242,436.8z M70.9,195.5
				c-3.4-1.3-6.1-2.5-9-3.3c-2.1-0.6-2.2-1.7-1.6-3.4c1.5-4.3,3-8.7,4.7-13c2.6-6.8,2.7-6.8-4.2-9.2l-0.7-0.2
				c-2-0.7-3.4-0.3-4.2,1.8c-3.7,10.3-7.5,20.6-11.2,30.9c-0.8,2.1-0.1,3.1,2,3.8c15.5,5.5,31,11.1,46.4,16.7c2.6,1,4,0.1,4.7-2.5
				c0.6-2.7,1.4-5.3,2.5-7.8c1.1-2.2,0.5-3.1-1.6-3.8c-4.7-1.6-9.3-3.4-14-4.9c-2.3-0.8-3.3-1.9-2.4-4.4c1.5-3.7,2.7-7.5,4.2-11.2
				c3-7.1,2.9-7.3-4.1-10.1c-2.8-1.1-4.2-0.8-5.2,2.3C75.5,183.4,73.2,189.2,70.9,195.5z M268.2,38.4c0.5,2.2,0.7,3.1,1,3.8
				c3.9,10.2,7.8,20.4,11.6,30.7c0.7,1.7,1,3.6,0.9,5.4c-0.6,4.9-1.5,9.8-2.4,14.7c-0.5,2.6-0.1,4.2,2.9,4.1c0.9,0,1.7,0.2,2.6,0.4
				c9.7,1.9,9.5,1.9,10.7-8c0.6-4.7,1.3-10,3.9-13.7c5.8-8.3,12.8-15.8,19.3-23.7c1.3-1.7,2.4-3.6,3.5-5.4c-2.4-0.2-3.9-0.4-5.5-0.6
				s-3.2-0.5-4.8-0.8c-5.6-1.1-5.9-0.8-9.1,4c-3.4,5.1-7,10.1-10.5,15c-2.3-7.1-4.5-14-6.7-21c-0.3-0.9-1-2.2-1.6-2.3
				C278.9,40.2,274,39.4,268.2,38.4z M147,388.5l1.1,0.8c3.1-2.2,6.2-4.3,9.1-6.7c0.3-0.3-0.5-2.7-1.3-3.3c-1.2-0.9-4.3-1.6-4.4-1.4
				C149.7,381.3,148.4,385,147,388.5z"/>
			<path class="st0" d="M237.9,73.2c-3.2-7.1-6.1-13.5-9.1-20.4c-1.6,7.6-3.1,14.7-4.7,22.4L237.9,73.2z"/>
			<path class="st0" d="M148.6,291.4c-1.2,12.3-2.4,24.6-3.7,37.9c-18.5-26.9-26.7-55.6-23.3-87.7l25.8,44.3l1.4-0.2
				c1.6-19.1,3.2-38.2,4.8-57.4l1.1-0.3l27.2,46.8l1.1-0.2l4.9-57.5l1.1-0.2l27.3,46.8l1.1-0.1l4.9-57.5l1.1-0.3l27.2,46.4h1.3
				c1.7-19.2,3.3-38.4,4.9-57.7l0.8-0.2l27.2,46.5h1.2c2.5-19.1,3.1-38.4,5-57.5l1.1-0.2l27.1,46.7l1.4-0.1l4.9-57.5l1-0.2
				l27.2,46.5l1.1-0.2c1.3-13.9,2.7-27.8,4.1-41.8c14.5,8.9,29.9,68.8,23,91.1c-8.9-15.3-17.5-29.9-26-44.6l-1.2,0.1
				c-1.6,19.3-3.2,38.5-4.8,57.8l-1.1,0.3l-27.4-46.8h-1.1c-1.7,19.2-3.3,38.3-5,57.5l-1.1,0.4l-27-46.2h-1.3
				c-1.7,19.1-3.3,38.2-5,57.4l-0.9,0.3L253,257.2l-1-0.1c-1.2,9.5-1.8,19.1-2.5,28.7c-0.7,9.9-1.9,19.7-3.5,29.4l-27.2-46.6
				l-1.3,0.1c-2.6,19-2.9,38.3-6.1,57.6l-27-46.5l-1.2,0.1c-2.5,19-3.2,38.2-6.1,57.4l-27.1-46.3L148.6,291.4z"/>
			<path class="st0" d="M158.8,168.3l-5,57.7l-0.9,0.2c-2.4-4.4-4.8-8.8-7.4-13.2c-3.4-5.8-7-11.5-10.1-17.4c-0.8-1.8-0.8-3.9,0-5.8
				c8.3-15.7,19.8-29.5,33.6-40.5c16.9-13.8,36-23.3,57.8-26.6c10.8-1.7,21.8-2.5,32.7-2.4c11.5,0.2,22.9,2.4,33.7,6.3
				c1.9,0.7,3,1.5,2.8,3.7c-1.4,16.3-2.7,32.5-4.1,48.8c-0.3,0.8-0.6,1.7-1,2.4l-27.5-47.3h-1.2c-1.7,19.3-3.4,38.5-5.1,57.8
				l-0.9,0.3L229,145.7l-1.1-0.1c-2.2,19.1-3.2,38.4-6.1,57.8l-27.2-46.4l-1.5,0.1c-1.7,19-3.3,37.9-5,56.9l-0.9,0.3l-27.1-46.2
				L158.8,168.3z"/>
			<path class="st0" d="M344.9,341l4.9-57.8l0.8-0.2c2.8,4.9,5.7,9.8,8.5,14.6c2.7,4.7,5.5,9.4,8.1,14.2c0.5,1.2,0.5,2.6-0.1,3.9
				c-4.9,9.7-11.6,18.1-18.9,26.2C336,355,321.3,365.5,305,372.7c-12.5,5.6-25.6,9.4-39.3,10.1c-11.4,0.6-22.9,0.3-34.3-0.7
				c-7.1-0.6-14-3.2-21-5.1c-1.2-0.6-2-1.7-2.2-3c1-14.3,2.2-28.6,3.4-42.9c0-0.7,0.5-1.3,1.2-2.9l27.5,47.2l1-0.1l4.9-57.8l1.1-0.3
				l27.2,46.6h1.3c1.7-19.1,3.3-38.3,4.9-57.4l1-0.4c9.1,15.5,18.2,31,27.2,46.5l1.4-0.1c1.6-19.1,3.2-38.2,4.9-57.3l1-0.3
				c9,15.4,18.1,30.8,27.1,46.2L344.9,341z"/>
			<path class="st0" d="M304,130.2c6.5,3.6,12.8,7.3,19.4,10.7c4.2,2.1,5.3,5,4.5,9.6c-0.9,5.2-0.9,10.6-1.3,15.9
				c-0.3,1.4-0.6,2.8-1.1,4.1l-22.7-39.1L304,130.2z"/>
			<path class="st0" d="M195.8,371.4c-3.6-1.9-7.2-3.6-10.7-5.6c-2.3-1.2-4.5-2.7-6.5-4.3c-1.2-1.1-2.5-2.9-2.5-4.3
				c0.1-5.3,0.6-10.6,1.1-16c0-0.4,0.4-0.9,1.1-2.1l18.3,31.4L195.8,371.4z"/>
			<path class="st0" d="M163,94c3.8-1.9,7.1-3.8,10.6-5.2c3.1-1.2,4.9,1,6.3,3.3c1.6,2.4,1,5.7-1.4,7.4c-2.4,1.8-4.9,3.4-7.7,4.6
				c-0.7,0.3-2.6-0.6-3.1-1.5C166.1,100.1,164.8,97.4,163,94z"/>
			<path class="st0" d="M152.1,75.1l8.9-4.7c3.2-1.7,5.3,0,6.7,2.7c1.5,2.8,1,5.4-1.8,7.2c-2.4,1.5-4.9,3-7.9,4.8L152.1,75.1z"/>
			<path class="st0" d="M406.8,117.8c-2.2,2.4-3.6,4.8-5.7,5.7c-1.6,0.7-4.6,0.2-6-1c-7.4-5.8-7.1-6.3-0.4-12.8
				c2.5-2.4,4-2.1,5.9,0.3S404.4,114.7,406.8,117.8z"/>
			<path class="st0" d="M237.9,73.2l-13.9,2c1.6-7.7,3.1-14.8,4.7-22.4C231.9,59.6,234.8,66.1,237.9,73.2z"/>
		</g>
	</g>
</g>
</svg>
