<svg xmlns="http://www.w3.org/2000/svg" viewBox="0 0 503.74 503.94">
  <defs>
    <style>
      .cls-1 {
        fill: #fff;
      }
    </style>
  </defs>
  <g id="Calque_2" data-name="Calque 2">
    <g id="Calque_1-2" data-name="Calque 1">
      <g>
        <path d="M0,252C.07,109,117.11-4.68,260.62.15c69,2.32,128,29.18,175.33,79.8,45.09,48.25,67.71,106,67.79,172,.16,142-116.17,256.94-261.41,251.88C107.9,499.11-.23,388.5,0,252ZM246.08,8.66C185.8,8.65,125.34,37,78.23,86.29s-69,108.84-66.32,176.93c5,124.83,111.65,234.9,251.73,228.71,124.94-5.53,234.24-111.58,228.23-251.45C486.41,113.6,389.67,8.65,246.08,8.66Z"/>
        <path class="cls-1" d="M220.57,12c159.05-1,265.84,101.56,271.3,228.44,6,139.87-103.29,245.92-228.23,251.45C123.56,498.12,16.91,388.05,11.91,263.22,9.19,195.13,31.13,135.61,78.23,86.29S183.75,12.66,220.57,12Zm40.62,468.59c50.11-.94,102.41-20.31,146-60.76,47.13-43.77,71.84-98.61,73.31-162.73C483.39,130.49,383.08,23,250.83,23.34c-121.9.27-224.39,96-227.57,223.5C20.12,373,120.4,480.17,261.19,480.63Z"/>
        <path d="M261.19,480.63C120.4,480.17,20.12,373,23.26,246.84,26.44,119.33,128.93,23.61,250.83,23.34c132.25-.3,232.56,107.15,229.64,233.8-1.47,64.12-26.18,119-73.31,162.73C363.6,460.32,311.3,479.69,261.19,480.63Zm5.54-85.94c58.64,1.08,124.22-58.08,127.85-135.45A142.47,142.47,0,0,0,260.33,109.45c-81.87-4.67-147,58.23-151.21,135.14-2.13,39.22,10.53,74.2,37.09,103.15C174.34,378.41,209.62,394.41,266.73,394.69Zm-185-50.48a7.09,7.09,0,0,1,.72-1.47c8.08-7.6,16.2-15.15,24.22-22.81.86-.82,1.92-2.61,1.58-3.33-3.07-6.36-6.43-12.58-9.69-18.81a7,7,0,0,0-1.42.31q-22.35,11.68-44.7,23.35c-2.66,1.38-3.38,2.91-1.61,5.54a25.73,25.73,0,0,1,2.92,5.63c1,2.66,2.49,2.77,4.63,1.61q16.07-8.73,32.14-17.41c1.29-.7,2.71-1.14,4.91-2l-28,27.8c-5.6,5.55-5.5,5.5-1.9,12.56,1.09,2.12,2.43,2.57,4.5,2.16q20.5-4.14,41-8.23a6.28,6.28,0,0,1,1.9.39c-10.27,5.36-20.16,10.3-29.84,15.62-12.24,6.73-10.13,2.55-4.95,14.34,1,2.39,2.64,3.17,5.35,1.73,14.5-7.73,29.11-15.26,43.61-23a3.31,3.31,0,0,0,1.08-3c-2.48-5.31-5.14-10.54-7.94-15.69a3.6,3.6,0,0,0-2.83-1.6q-8.52,1.05-17,2.58C94.36,341.52,88.32,342.86,81.75,344.21Zm111.66,75.26c2.1,13.28,4,26.08,6.23,38.84a5.72,5.72,0,0,0,3.05,3.58c3.89,1.64,8,2.83,12,4.13,2.53.81,4.11.28,5-2.66q5.68-18.74,11.8-37.35c3.9-11.77,4-11.73-5.41-15.26l-.69-.27c-2.47-.79-4-.1-4.83,2.53-2,6.55-4,13.06-6.05,19.59l-4.22,13.58c-2-13.09-3.88-25.63-5.95-38.14-.27-1.63-1.24-3.93-2.49-4.45a107.49,107.49,0,0,0-14.19-4.54c-.85-.23-2.81,1-3.11,1.9q-7.78,23.76-15.13,47.66c-.29,1,.88,3.08,1.9,3.58,2.31,1.14,5,1.44,7.45,2.39s3.59.09,4.29-2q2.14-6.54,4.18-13.12C189.32,432.84,191.33,426.23,193.41,419.47ZM432,170.76c-9.56,9.26-18.43,18-27.45,26.47-2.42,2.28-3.77,4.36-2.4,7.79a70.84,70.84,0,0,1,3.48,11c.64,2.83,1.78,2.89,4.18,2.1,13.72-4.47,27.49-8.79,41.25-13.16,8.69-2.76,8.69-2.76,6-11.34a8,8,0,0,1-.34-1.46c-.34-2.73-1.86-3.18-4.25-2.39-7.21,2.37-14.46,4.63-21.67,7-3.93,1.29-7.82,2.7-11.73,4.06,1.51-2.29,3.57-3.65,5.3-5.33q11.84-11.46,23.45-23.13a4.58,4.58,0,0,0,1.27-3.6c-1.47-5.34-3.28-10.59-5-15.93a18.21,18.21,0,0,0-1.82.31c-14,4.47-28.05,8.85-42,13.45-10,3.29-9.92,3.4-6.3,13.5.77,2.14,1.89,2.63,4,1.94,7.33-2.42,14.7-4.73,22-7.13C423.69,173.65,427.47,172.3,432,170.76ZM404.72,339.7a7,7,0,0,1,1.28-.36c12.81.59,25.62,1.31,38.43,1.66a7.11,7.11,0,0,0,5.08-2.78c2.31-3.35,3.92-7.17,5.93-10.75,1.17-2.09.7-3.53-1.34-4.62-14.46-7.76-29-15.46-43.35-23.36-2.39-1.32-3.49-.41-4.5,1.37-1.35,2.38-2.5,4.88-3.79,7.29-.89,1.66-.58,2.64,1.18,3.56,7.18,3.73,14.28,7.61,21.42,11.43,3.06,1.64,6.15,3.23,9.23,4.85-2.25.52-4.16.05-6.09,0-10.85-.36-21.7-.78-32.55-.78-1.78,0-4.12,1.6-5.23,3.15-2.2,3.1-3.5,6.85-5.62,10-1.75,2.61-1.24,3.66,1.41,5.08,14.57,7.82,29,15.86,43.58,23.7a3.3,3.3,0,0,0,3.12-.7,75.78,75.78,0,0,0,4.53-7.7c1.16-2.12.28-3.25-1.79-4.34C425.43,351,415.31,345.44,404.72,339.7ZM176.65,80.14a22.87,22.87,0,0,1,1.66-2.55c4.47-5,2.8-10.35,0-15.16-2.39-4.14-8.89-7-13.34-4.93-9.94,4.51-19.6,9.61-29.3,14.61-.43.22-.55,2-.17,2.69,6.46,11.58,13,23.11,19.55,34.64,1.83,3.24,3.52,6.57,5.57,9.66.51.78,2.54,1.5,3.21,1.11,9.22-5.35,19.23-9.44,27.2-16.82,4-3.73,5.71-8.07,4-13.45-1.86-5.84-5.66-9.66-11.79-10.59C181.33,79.06,179.24,79.8,176.65,80.14ZM322.84,429l16.59-8.74c2.88,5.36,5.6,10.23,8.14,15.18,2.71,5.31,3.14,5.49,8.44,2.54,1.2-.66,2.41-1.3,3.64-1.91,4.13-2,4.29-2.49,2.18-6.42q-10.12-18.88-20.24-37.76a31,31,0,0,0-3.06-5.12,3.31,3.31,0,0,0-2.94-1,50.12,50.12,0,0,0-8.56,4.56c-.91.63-1.67,2.85-1.25,3.78a145.12,145.12,0,0,0,7.06,13.55c1.09,1.84,1.17,2.82-.78,3.82-4.74,2.43-9.45,4.93-14.52,7.59-2.92-5.4-5.65-10.67-8.65-15.77-.51-.87-2.51-1.76-3.28-1.42a59.05,59.05,0,0,0-9.12,5,3.41,3.41,0,0,0-.7,3.2c1.75,3.85,3.81,7.57,5.79,11.32q8.44,16,16.91,32c1.77,3.32,3,3.56,6.2,1.6a45.5,45.5,0,0,1,5.84-3.3c2.5-1.08,3.13-2.26,1.69-4.83C329,441.18,326.11,435.28,322.84,429Zm31.84-302.37c2.87,3.17,5.44,5.84,7.82,8.68,1.7,2,3.14,1.93,5,.17,3.5-3.38,7-6.72,10.72-9.89.9-.77,2.93-1.52,3.58-1.06,1.68,1.19,3.66,2.52,2,5.48-2,3.69-3.06,8-5.29,11.54-3.74,5.93-2.28,10.3,2.85,14.26,1.77,1.36,3.3,3,5.24,4.83.75-1.55,1.19-2.29,1.48-3.08q3.53-9.45,7-18.92c.57-1.53.89-3.25,3.29-2.38,5.54,2,10.35.18,14.55-3.36,5.86-4.92,9.6-12.22,3.7-19.93-5.56-7.29-12.16-13.79-18-20.86-2.36-2.85-4.05-2.45-6.36-.2-4.92,4.77-9.92,9.45-15,14.1C369.93,112.75,362.56,119.43,354.68,126.63ZM263.42,93.2c-2.15-4.25-3.93-7.63-5.59-11.07-6.36-13.17-12.72-26.35-19-39.57-1.15-2.43-2.47-3.28-5.26-2.6A59.32,59.32,0,0,1,224,41.1c-5.15.37-5.93,1-7.05,5.93-1.33,5.83-2.65,11.65-4,17.46-2.58,10.65-5.26,21.27-7.75,31.94-.19.82.87,2.78,1.31,2.77a87,87,0,0,0,11.51-1c.78-.13,1.6-1.78,1.89-2.86,2.51-9.54,2.47-9.55,12.46-10.21.88-.06,1.75-.1,2.62-.19C243,84,243,84,246.18,91.69c.47,1.11,1.94,2.58,2.93,2.56C253.55,94.19,258,93.65,263.42,93.2ZM136,430.18c7.12,0,12.21-3.9,16.36-9.12,5.48-6.9,10.57-14.12,16.1-21,5.73-7.11,5.87-7-1.61-12.26-4.67-3.29-4.78-3.11-8.29,1.6-5.93,8-11.92,15.91-18.26,23.55a13.07,13.07,0,0,1-6.95,3.83c-3.73.82-6.9-1.15-8.79-4.36-2.36-4-.7-7.87,1.72-11.11q9.72-13,20-25.57c1.6-2,1.31-2.88-.36-4.17-2.17-1.66-4.41-3.26-6.44-5.07-2.25-2-3.84-2-5.77.58-6.31,8.29-13,16.27-19.16,24.7-3,4.16-6.07,8.7-5.49,14.35C110.22,417.79,124.15,430.13,136,430.18Zm210-309c1.26-2.35,2.37-4.54,3.6-6.66s.77-3.62-1.54-4.76c-4-2-7.95-4-11.8-6.3-6.83-4-6.72-4-3.19-11.11,1-2.07,2-2.42,4.06-1.31,5.57,3,11.25,5.75,17.3,8.81l5-9.7c-5-2.58-9.51-5.11-14.21-7.36-5.63-2.69-5.7-2.62-3-8.16.22-.45.44-.9.65-1.35,1.1-2.3,2.43-3,5-1.58,5.1,2.9,10.34,5.55,15.65,8A3.87,3.87,0,0,0,367.1,79a26.11,26.11,0,0,0,3.23-6.23,2.5,2.5,0,0,0-.84-2.27c-10-5.3-20.11-10.45-30.14-15.72-2.08-1.09-3-.56-4.05,1.44-6.71,13-13.62,26-20.31,39-4,7.75-3.87,7.82,4,11.92C327.9,111.77,336.82,116.39,346,121.16Zm61.34,264c-4.43,4.05-8.39,7.61-12.29,11.25-6.28,5.87-6.2,5.83-11.91-.62-1.66-1.88-1.47-3.14.24-4.66,2.89-2.58,5.67-5.26,8.56-7.83,5.59-5,5.47-4.86,1-10.45-2.2-2.73-3.67-2.41-5.92-.17-3.7,3.69-7.61,7.18-11.6,10.56-.77.65-2.83,1-3.36.51a74,74,0,0,1-5.71-6.69c4.37-4.05,8.53-8,12.77-11.8,4.57-4.13,4.63-4.72.3-9.07a11.66,11.66,0,0,1-1.31-1.32c-1.33-1.83-2.58-1.43-4-.08-7.93,7.39-15.84,14.8-23.89,22.06-2.25,2-1.58,3.5.12,5.25,3.38,3.49,6.74,7,10,10.55q11.58,12.44,23.1,24.93c1.14,1.23,2.19,2.53,4,.84,8.48-7.89,17-15.71,25.42-23.7a3.49,3.49,0,0,0,.14-3.38A67.32,67.32,0,0,0,407.34,385.2ZM72.42,140.12c.41,2.3.51,4.72,1.28,6.9,3.14,8.84,9.67,14.64,17.8,18.75,7,3.53,14.4,5.23,21.94,1.92,8.16-3.58,13.64-10,16.72-18.22,2.31-6.17,1.22-12.3-2.6-17.7-2.85-4.05-3.13-4-6.68-.67a39.38,39.38,0,0,1-3.25,3.09c-2.68,2-2.91,3.69-1,6.82a11.59,11.59,0,0,1,.74,8.74c-1.07,3.12-4,5-8,4.87-9.86-.37-16.69-5.8-22.55-12.92-2.84-3.45-2.15-7.32-.21-10.88s5.35-4.26,9.07-3.65c2.35.38,3.5-.56,4-2.78a21.85,21.85,0,0,1,1.21-3.14c2.84-6.93,2-8.06-5.64-8a14.79,14.79,0,0,0-3.67.53C80.58,116.87,72.47,128.19,72.42,140.12ZM242,436.79c1.43,5.36,2.25,11,4.45,16,3.13,7.15,8.36,12.55,16.42,14.58,7.69,1.95,14.81.3,21.75-2.94,6.36-3,9.19-8.46,10.52-15,.52-2.54-.08-4.16-3.16-4a46.85,46.85,0,0,1-7.11-.13c-2.8-.27-4.16.61-4.32,3.59a7.45,7.45,0,0,1-6.2,7.45c-4.67,1.06-8.38-.23-10.54-3.76a36.6,36.6,0,0,1-5.17-22.5c.32-3.95,2.21-7.16,6.33-8.43,4.35-1.33,7.33-.14,10.64,3.79a3.26,3.26,0,0,0,2.8.95,58.49,58.49,0,0,0,8.71-4.16c.72-.42,1.27-2.64.83-3.22-3.18-4.21-6.76-8-12.32-9.09C261.39,407.08,241.54,417.43,242,436.79ZM70.9,195.55c-3.41-1.29-6.14-2.52-9-3.33-2.09-.61-2.15-1.72-1.57-3.36,1.54-4.34,3-8.73,4.65-13,2.64-6.83,2.7-6.8-4.18-9.2l-.71-.23c-2-.71-3.39-.27-4.15,1.83q-5.58,15.44-11.21,30.85c-.79,2.14-.11,3.06,2,3.82,15.5,5.49,31,11.11,46.4,16.73,2.6,1,4,.14,4.72-2.47a44.75,44.75,0,0,1,2.52-7.78c1.08-2.25.54-3.08-1.62-3.8-4.71-1.56-9.34-3.35-14-4.92-2.3-.76-3.34-1.89-2.36-4.39,1.47-3.7,2.7-7.51,4.24-11.18,3-7.09,2.86-7.28-4.11-10.07-2.84-1.13-4.2-.76-5.17,2.34C75.45,183.38,73.15,189.27,70.9,195.55ZM268.15,38.43c.55,2.22.67,3.07,1,3.85C273,52.5,276.94,62.7,280.74,73a12.29,12.29,0,0,1,.93,5.44c-.59,4.94-1.48,9.85-2.44,14.73-.51,2.6-.14,4.18,2.93,4.11a12.78,12.78,0,0,1,2.58.39c9.74,1.92,9.48,1.89,10.71-8,.58-4.68,1.29-10,3.85-13.66,5.8-8.33,12.82-15.81,19.28-23.7a61,61,0,0,0,3.5-5.43c-2.39-.25-3.94-.38-5.49-.58s-3.21-.45-4.8-.75c-5.65-1.08-5.91-.84-9.06,4-3.38,5.12-7,10.06-10.52,15-2.26-7.07-4.45-14-6.74-21-.29-.87-1-2.15-1.63-2.29C278.93,40.19,274,39.42,268.15,38.43ZM147,388.55l1.06.76c3.06-2.19,6.19-4.29,9.07-6.69.32-.27-.46-2.7-1.31-3.31-1.24-.88-4.26-1.63-4.38-1.38C149.72,381.37,148.39,385,147,388.55Z"/>
        <path class="cls-1" d="M266.73,394.69c-57.11-.28-92.39-16.28-120.52-46.95-26.56-28.95-39.22-63.93-37.09-103.15,4.17-76.91,69.34-139.81,151.21-135.14A142.47,142.47,0,0,1,394.58,259.24C391,336.61,325.37,395.77,266.73,394.69ZM148.55,291.38l1.33-.28L177,337.37c2.89-19.18,3.56-38.41,6.06-57.43l1.21-.1,27,46.49c3.26-19.27,3.48-38.58,6.13-57.6l1.28-.14,27.18,46.61a294,294,0,0,0,3.54-29.44c.72-9.58,1.28-19.16,2.53-28.67l1,.1,27.31,46.55.93-.33q2.49-28.7,5-57.37l1.28,0,27,46.22,1.1-.37q2.49-28.74,5-57.48h1.08l27.36,46.84,1.07-.34q2.42-28.91,4.81-57.8l1.19-.11c8.53,14.64,17.07,29.28,26,44.58,6.91-22.35-8.51-82.24-23-91.11q-2,21-4.08,41.8l-1.11.21L326.81,172l-1,.24-4.94,57.46-1.42.1-27.12-46.73-1.1.19c-1.91,19.15-2.56,38.44-5,57.52h-1.25l-27.18-46.49-.81.2q-2.46,28.84-4.93,57.67l-1.33,0-27.25-46.45-1.13.33-4.86,57.49-1.08.13L189,216.88l-1.09.25L183,274.58l-1.14.22L154.65,228l-1.11.31q-2.4,28.67-4.81,57.35l-1.39.21L121.5,241.57c-3.4,32.08,4.81,60.75,23.31,87.66C146.12,316,147.34,303.68,148.55,291.38Zm10.22-123.06,1.44-.15,27.09,46.22.87-.28q2.47-28.43,5-56.87l1.47-.15,27.22,46.36c3-19.46,3.9-38.72,6.15-57.83l1.05.09,27.24,46.63.9-.32q2.54-28.87,5.06-57.75l1.2,0,27.52,47.3a13.11,13.11,0,0,0,1-2.44c1.37-16.27,2.69-32.54,4.08-48.81.19-2.21-.89-3-2.77-3.7a105.74,105.74,0,0,0-33.67-6.28,191.84,191.84,0,0,0-32.71,2.38c-21.7,3.27-40.81,12.8-57.75,26.55a129.82,129.82,0,0,0-33.61,40.53,7.18,7.18,0,0,0,0,5.78c3.11,5.94,6.76,11.59,10.12,17.41,2.52,4.36,4.9,8.8,7.35,13.2l.85-.2ZM344.87,341l-1.46-.07q-13.56-23.08-27.11-46.18l-1,.34q-2.43,28.63-4.85,57.26l-1.35.12Q295.53,329.26,281.91,306l-1,.38q-2.47,28.69-4.94,57.38h-1.24l-27.21-46.61-1.13.32-4.94,57.82-1,.13-27.52-47.25c-.7,1.59-1.19,2.21-1.24,2.87-1.19,14.29-2.38,28.58-3.38,42.89a3.94,3.94,0,0,0,2.19,3.05c6.94,1.94,13.89,4.49,21,5.11a248.57,248.57,0,0,0,34.3.72c13.65-.7,26.8-4.41,39.28-10.06a130.7,130.7,0,0,0,43.12-30.82c7.36-8,14-16.46,18.94-26.18a4.87,4.87,0,0,0,.07-3.85c-2.53-4.83-5.34-9.51-8.07-14.24q-4.23-7.32-8.49-14.63l-.84.18ZM304,130.25l-1.11,1.25,22.64,39.09a31.73,31.73,0,0,0,1.09-4.12c.45-5.32.43-10.71,1.33-15.94.8-4.6-.3-7.46-4.54-9.61C316.82,137.58,310.45,133.83,304,130.25ZM195.8,371.44l.74-.84-18.28-31.43c-.66,1.27-1,1.68-1.07,2.12-.43,5.32-1,10.64-1.08,16,0,1.45,1.3,3.24,2.51,4.3a37.6,37.6,0,0,0,6.5,4.31C188.62,367.82,192.23,369.59,195.8,371.44Z"/>
        <path class="cls-1" d="M81.75,344.21c6.57-1.35,12.61-2.69,18.7-3.8q8.44-1.53,17-2.58a3.6,3.6,0,0,1,2.83,1.6c2.8,5.15,5.46,10.38,7.94,15.69a3.31,3.31,0,0,1-1.08,3c-14.5,7.74-29.11,15.27-43.61,23-2.71,1.44-4.3.66-5.35-1.73-5.18-11.79-7.29-7.61,4.95-14.34,9.68-5.32,19.57-10.26,29.84-15.62a6.28,6.28,0,0,0-1.9-.39q-20.52,4.08-41,8.23c-2.07.41-3.41,0-4.5-2.16-3.6-7.06-3.7-7,1.9-12.56l28-27.8c-2.2.9-3.62,1.34-4.91,2q-16.1,8.65-32.14,17.41c-2.14,1.16-3.67,1-4.63-1.61A25.73,25.73,0,0,0,50.85,327c-1.77-2.63-1.05-4.16,1.61-5.54q22.38-11.61,44.7-23.35a7,7,0,0,1,1.42-.31c3.26,6.23,6.62,12.45,9.69,18.81.34.72-.72,2.51-1.58,3.33-8,7.66-16.14,15.21-24.22,22.81A7.09,7.09,0,0,0,81.75,344.21Z"/>
        <path class="cls-1" d="M193.41,419.47c-2.08,6.76-4.09,13.37-6.15,20q-2,6.57-4.18,13.12c-.7,2.12-1.94,3-4.29,2s-5.14-1.25-7.45-2.39c-1-.5-2.19-2.62-1.9-3.58q7.32-23.91,15.13-47.66c.3-.92,2.26-2.13,3.11-1.9a107.49,107.49,0,0,1,14.19,4.54c1.25.52,2.22,2.82,2.49,4.45,2.07,12.51,3.93,25,5.95,38.14l4.22-13.58c2-6.53,4.1-13,6.05-19.59.78-2.63,2.36-3.32,4.83-2.53l.69.27c9.44,3.53,9.31,3.49,5.41,15.26q-6.15,18.58-11.8,37.35c-.9,2.94-2.48,3.47-5,2.66-4-1.3-8.12-2.49-12-4.13a5.72,5.72,0,0,1-3.05-3.58C197.45,445.55,195.51,432.75,193.41,419.47Z"/>
        <path class="cls-1" d="M432,170.76c-4.48,1.54-8.26,2.89-12.07,4.13-7.34,2.4-14.71,4.71-22,7.13-2.08.69-3.2.2-4-1.94-3.62-10.1-3.7-10.21,6.3-13.5,14-4.6,28-9,42-13.45a18.21,18.21,0,0,1,1.82-.31c1.71,5.34,3.52,10.59,5,15.93a4.58,4.58,0,0,1-1.27,3.6q-11.6,11.68-23.45,23.13c-1.73,1.68-3.79,3-5.3,5.33,3.91-1.36,7.8-2.77,11.73-4.06,7.21-2.36,14.46-4.62,21.67-7,2.39-.79,3.91-.34,4.25,2.39a8,8,0,0,0,.34,1.46c2.73,8.58,2.73,8.58-6,11.34-13.76,4.37-27.53,8.69-41.25,13.16-2.4.79-3.54.73-4.18-2.1a70.84,70.84,0,0,0-3.48-11c-1.37-3.43,0-5.51,2.4-7.79C413.52,188.71,422.39,180,432,170.76Z"/>
        <path class="cls-1" d="M404.72,339.7c10.59,5.74,20.71,11.31,30.93,16.7,2.07,1.09,3,2.22,1.79,4.34a75.78,75.78,0,0,1-4.53,7.7,3.3,3.3,0,0,1-3.12.7c-14.56-7.84-29-15.88-43.58-23.7-2.65-1.42-3.16-2.47-1.41-5.08,2.12-3.17,3.42-6.92,5.62-10,1.11-1.55,3.45-3.15,5.23-3.15,10.85,0,21.7.42,32.55.78,1.93.07,3.84.54,6.09,0-3.08-1.62-6.17-3.21-9.23-4.85-7.14-3.82-14.24-7.7-21.42-11.43-1.76-.92-2.07-1.9-1.18-3.56,1.29-2.41,2.44-4.91,3.79-7.29,1-1.78,2.11-2.69,4.5-1.37,14.39,7.9,28.89,15.6,43.35,23.36,2,1.09,2.51,2.53,1.34,4.62-2,3.58-3.62,7.4-5.93,10.75a7.11,7.11,0,0,1-5.08,2.78c-12.81-.35-25.62-1.07-38.43-1.66A7,7,0,0,0,404.72,339.7Z"/>
        <path class="cls-1" d="M176.65,80.14c2.59-.34,4.68-1.08,6.61-.79,6.13.93,9.93,4.75,11.79,10.59,1.72,5.38,0,9.72-4,13.45-8,7.38-18,11.47-27.2,16.82-.67.39-2.7-.33-3.21-1.11-2.05-3.09-3.74-6.42-5.57-9.66C148.55,97.91,142,86.38,135.53,74.8c-.38-.69-.26-2.47.17-2.69,9.7-5,19.36-10.1,29.3-14.61,4.45-2,10.95.79,13.34,4.93,2.77,4.81,4.44,10.21,0,15.16A22.87,22.87,0,0,0,176.65,80.14ZM163,94c1.82,3.43,3.07,6.15,4.71,8.62.56.86,2.42,1.79,3.13,1.46a36.67,36.67,0,0,0,7.68-4.55,5.37,5.37,0,0,0,1.37-7.38c-1.36-2.38-3.2-4.56-6.27-3.34C170.1,90.21,166.77,92.13,163,94ZM152.12,75.1,158,84.94c3-1.8,5.49-3.21,7.9-4.75,2.77-1.79,3.31-4.36,1.82-7.15-1.4-2.62-3.42-4.36-6.67-2.65Z"/>
        <path class="cls-1" d="M322.84,429c3.27,6.28,6.17,12.18,9.38,17.9,1.44,2.57.81,3.75-1.69,4.83a45.5,45.5,0,0,0-5.84,3.3c-3.17,2-4.43,1.72-6.2-1.6q-8.5-16-16.91-32c-2-3.75-4-7.47-5.79-11.32a3.41,3.41,0,0,1,.7-3.2,59.05,59.05,0,0,1,9.12-5c.77-.34,2.77.55,3.28,1.42,3,5.1,5.73,10.37,8.65,15.77,5.07-2.66,9.78-5.16,14.52-7.59,1.95-1,1.87-2,.78-3.82a145.12,145.12,0,0,1-7.06-13.55c-.42-.93.34-3.15,1.25-3.78a50.12,50.12,0,0,1,8.56-4.56,3.31,3.31,0,0,1,2.94,1,31,31,0,0,1,3.06,5.12q10.14,18.87,20.24,37.76c2.11,3.93,1.95,4.4-2.18,6.42-1.23.61-2.44,1.25-3.64,1.91-5.3,2.95-5.73,2.77-8.44-2.54-2.54-4.95-5.26-9.82-8.14-15.18Z"/>
        <path class="cls-1" d="M354.68,126.63c7.88-7.2,15.25-13.88,22.56-20.62,5-4.65,10-9.33,15-14.1,2.31-2.25,4-2.65,6.36.2,5.88,7.07,12.48,13.57,18,20.86,5.9,7.71,2.16,15-3.7,19.93-4.2,3.54-9,5.35-14.55,3.36-2.4-.87-2.72.85-3.29,2.38q-3.49,9.47-7,18.92c-.29.79-.73,1.53-1.48,3.08-1.94-1.81-3.47-3.47-5.24-4.83-5.13-4-6.59-8.33-2.85-14.26,2.23-3.55,3.25-7.85,5.29-11.54,1.64-3-.34-4.29-2-5.48-.65-.46-2.68.29-3.58,1.06-3.69,3.17-7.22,6.51-10.72,9.89-1.82,1.76-3.26,1.86-5-.17C360.12,132.47,357.55,129.8,354.68,126.63Zm52.15-8.82c-2.43-3.06-4.29-5.41-6.14-7.76s-3.4-2.7-5.92-.29c-6.74,6.46-7,7,.37,12.78,1.46,1.14,4.43,1.7,6,1C403.23,122.63,404.61,120.19,406.83,117.81Z"/>
        <path class="cls-1" d="M263.42,93.2c-5.43.45-9.87,1-14.31,1-1,0-2.46-1.45-2.93-2.56C243,84,243,84,234.9,84.9c-.87.09-1.74.13-2.62.19-10,.66-9.95.67-12.46,10.21-.29,1.08-1.11,2.73-1.89,2.86a87,87,0,0,1-11.51,1c-.44,0-1.5-2-1.31-2.77,2.49-10.67,5.17-21.29,7.75-31.94,1.4-5.81,2.72-11.63,4-17.46,1.12-5,1.9-5.56,7.05-5.93A59.32,59.32,0,0,0,233.59,40c2.79-.68,4.11.17,5.26,2.6,6.26,13.22,12.62,26.4,19,39.57C259.49,85.57,261.27,89,263.42,93.2Zm-25.49-20c-3.18-7.08-6.08-13.54-9.15-20.36-1.59,7.58-3.09,14.66-4.71,22.38Z"/>
        <path class="cls-1" d="M136,430.18c-11.87-.05-25.8-12.39-27-24-.58-5.65,2.48-10.19,5.49-14.35,6.12-8.43,12.85-16.41,19.16-24.7,1.93-2.54,3.52-2.6,5.77-.58,2,1.81,4.27,3.41,6.44,5.07,1.67,1.29,2,2.2.36,4.17q-10.24,12.57-20,25.57c-2.42,3.24-4.08,7.11-1.72,11.11,1.89,3.21,5.06,5.18,8.79,4.36a13.07,13.07,0,0,0,6.95-3.83c6.34-7.64,12.33-15.58,18.26-23.55,3.51-4.71,3.62-4.89,8.29-1.6,7.48,5.26,7.34,5.15,1.61,12.26-5.53,6.87-10.62,14.09-16.1,21C148.23,426.28,143.14,430.15,136,430.18Z"/>
        <path class="cls-1" d="M346,121.16c-9.18-4.77-18.1-9.39-27-14-7.86-4.1-8-4.17-4-11.92,6.69-13,13.6-26,20.31-39,1-2,2-2.53,4.05-1.44,10,5.27,20.12,10.42,30.14,15.72a2.5,2.5,0,0,1,.84,2.27A26.11,26.11,0,0,1,367.1,79a3.87,3.87,0,0,1-3.61.75c-5.31-2.49-10.55-5.14-15.65-8-2.55-1.44-3.88-.72-5,1.58-.21.45-.43.9-.65,1.35-2.71,5.54-2.64,5.47,3,8.16,4.7,2.25,9.26,4.78,14.21,7.36l-5,9.7C348.38,96.77,342.7,94,337.13,91c-2.06-1.11-3-.76-4.06,1.31-3.53,7.08-3.64,7.12,3.19,11.11,3.85,2.25,7.81,4.32,11.8,6.3,2.31,1.14,2.85,2.52,1.54,4.76S347.26,118.81,346,121.16Z"/>
        <path class="cls-1" d="M407.34,385.2a67.32,67.32,0,0,1,5.64,6.18,3.49,3.49,0,0,1-.14,3.38c-8.39,8-16.94,15.81-25.42,23.7-1.81,1.69-2.86.39-4-.84q-11.55-12.48-23.1-24.93c-3.3-3.56-6.66-7.06-10-10.55-1.7-1.75-2.37-3.22-.12-5.25,8-7.26,16-14.67,23.89-22.06,1.44-1.35,2.69-1.75,4,.08a11.66,11.66,0,0,0,1.31,1.32c4.33,4.35,4.27,4.94-.3,9.07-4.24,3.83-8.4,7.75-12.77,11.8a74,74,0,0,0,5.71,6.69c.53.5,2.59.14,3.36-.51,4-3.38,7.9-6.87,11.6-10.56,2.25-2.24,3.72-2.56,5.92.17,4.51,5.59,4.63,5.45-1,10.45-2.89,2.57-5.67,5.25-8.56,7.83-1.71,1.52-1.9,2.78-.24,4.66,5.71,6.45,5.63,6.49,11.91.62C399,392.81,402.91,389.25,407.34,385.2Z"/>
        <path class="cls-1" d="M72.42,140.12c0-11.93,8.16-23.25,19.14-26.31a14.79,14.79,0,0,1,3.67-.53c7.69-.09,8.48,1,5.64,8a21.85,21.85,0,0,0-1.21,3.14c-.5,2.22-1.65,3.16-4,2.78-3.72-.61-7.13.12-9.07,3.65s-2.63,7.43.21,10.88c5.86,7.12,12.69,12.55,22.55,12.92,4,.14,6.94-1.75,8-4.87a11.59,11.59,0,0,0-.74-8.74c-1.9-3.13-1.67-4.81,1-6.82a39.38,39.38,0,0,0,3.25-3.09c3.55-3.3,3.83-3.38,6.68.67,3.82,5.4,4.91,11.53,2.6,17.7-3.08,8.21-8.56,14.64-16.72,18.22C105.9,171,98.5,169.3,91.5,165.77c-8.13-4.11-14.66-9.91-17.8-18.75C72.93,144.84,72.83,142.42,72.42,140.12Z"/>
        <path class="cls-1" d="M242,436.79c-.41-19.36,19.44-29.71,33.63-26.82,5.56,1.13,9.14,4.88,12.32,9.09.44.58-.11,2.8-.83,3.22a58.49,58.49,0,0,1-8.71,4.16,3.26,3.26,0,0,1-2.8-.95c-3.31-3.93-6.29-5.12-10.64-3.79-4.12,1.27-6,4.48-6.33,8.43a36.6,36.6,0,0,0,5.17,22.5c2.16,3.53,5.87,4.82,10.54,3.76a7.45,7.45,0,0,0,6.2-7.45c.16-3,1.52-3.86,4.32-3.59a46.85,46.85,0,0,0,7.11.13c3.08-.16,3.68,1.46,3.16,4-1.33,6.51-4.16,12-10.52,15-6.94,3.24-14.06,4.89-21.75,2.94-8.06-2-13.29-7.43-16.42-14.58C244.2,447.78,243.38,442.15,242,436.79Z"/>
        <path class="cls-1" d="M70.9,195.55c2.25-6.28,4.55-12.17,6.45-18.19,1-3.1,2.33-3.47,5.17-2.34,7,2.79,7.09,3,4.11,10.07-1.54,3.67-2.77,7.48-4.24,11.18-1,2.5.06,3.63,2.36,4.39,4.71,1.57,9.34,3.36,14,4.92,2.16.72,2.7,1.55,1.62,3.8a44.75,44.75,0,0,0-2.52,7.78c-.71,2.61-2.12,3.42-4.72,2.47-15.45-5.62-30.9-11.24-46.4-16.73-2.14-.76-2.82-1.68-2-3.82q5.64-15.4,11.21-30.85c.76-2.1,2.18-2.54,4.15-1.83l.71.23c6.88,2.4,6.82,2.37,4.18,9.2-1.67,4.3-3.11,8.69-4.65,13-.58,1.64-.52,2.75,1.57,3.36C64.76,193,67.49,194.26,70.9,195.55Z"/>
        <path class="cls-1" d="M268.15,38.43c5.81,1,10.78,1.76,15.69,2.76.68.14,1.34,1.42,1.63,2.29,2.29,7,4.48,13.92,6.74,21,3.5-5,7.14-9.93,10.52-15,3.15-4.79,3.41-5,9.06-4,1.59.3,3.19.54,4.8.75s3.1.33,5.49.58a61,61,0,0,1-3.5,5.43c-6.46,7.89-13.48,15.37-19.28,23.7-2.56,3.68-3.27,9-3.85,13.66-1.23,9.92-1,10-10.71,8a12.78,12.78,0,0,0-2.58-.39c-3.07.07-3.44-1.51-2.93-4.11,1-4.88,1.85-9.79,2.44-14.73a12.29,12.29,0,0,0-.93-5.44C276.94,62.7,273,52.5,269.11,42.28,268.82,41.5,268.7,40.65,268.15,38.43Z"/>
        <path class="cls-1" d="M147,388.55c1.42-3.57,2.75-7.18,4.44-10.62.12-.25,3.14.5,4.38,1.38.85.61,1.63,3,1.31,3.31-2.88,2.4-6,4.5-9.07,6.69Z"/>
        <path d="M148.55,291.38c-1.21,12.3-2.43,24.61-3.74,37.85-18.5-26.91-26.71-55.58-23.31-87.66l25.84,44.31,1.39-.21q2.4-28.68,4.81-57.35l1.11-.31L181.9,274.8l1.14-.22,4.89-57.45,1.09-.25,27.34,46.82,1.08-.13,4.86-57.49,1.13-.33,27.25,46.45,1.33,0q2.48-28.83,4.93-57.67l.81-.2,27.18,46.49h1.25c2.47-19.08,3.12-38.37,5-57.52l1.1-.19,27.12,46.73,1.42-.1,4.94-57.46,1-.24L354,218.49l1.11-.21q2-20.86,4.08-41.8c14.46,8.87,29.88,68.76,23,91.11-8.91-15.3-17.45-29.94-26-44.58l-1.19.11q-2.4,28.9-4.81,57.8l-1.07.34-27.36-46.84h-1.08q-2.49,28.74-5,57.48l-1.1.37-27-46.22-1.28,0q-2.49,28.68-5,57.37l-.93.33L253,257.19l-1-.1c-1.25,9.51-1.81,19.09-2.53,28.67a294,294,0,0,1-3.54,29.44L218.7,268.59l-1.28.14c-2.65,19-2.87,38.33-6.13,57.6l-27-46.49-1.21.1c-2.5,19-3.17,38.25-6.06,57.43L149.88,291.1Z"/>
        <path d="M158.77,168.32l-5,57.69-.85.2c-2.45-4.4-4.83-8.84-7.35-13.2-3.36-5.82-7-11.47-10.12-17.41a7.18,7.18,0,0,1,0-5.78,129.82,129.82,0,0,1,33.61-40.53c16.94-13.75,36-23.28,57.75-26.55a191.84,191.84,0,0,1,32.71-2.38,105.74,105.74,0,0,1,33.67,6.28c1.88.68,3,1.49,2.77,3.7-1.39,16.27-2.71,32.54-4.08,48.81a13.11,13.11,0,0,1-1,2.44l-27.52-47.3-1.2,0q-2.54,28.88-5.06,57.75l-.9.32L229,145.71l-1.05-.09c-2.25,19.11-3.19,38.37-6.15,57.83L194.6,157.09l-1.47.15q-2.49,28.44-5,56.87l-.87.28-27.09-46.22Z"/>
        <path d="M344.87,341l4.89-57.8.84-.18q4.25,7.32,8.49,14.63c2.73,4.73,5.54,9.41,8.07,14.24a4.87,4.87,0,0,1-.07,3.85c-4.92,9.72-11.58,18.14-18.94,26.18A130.7,130.7,0,0,1,305,372.76c-12.48,5.65-25.63,9.36-39.28,10.06a248.57,248.57,0,0,1-34.3-.72c-7.1-.62-14-3.17-21-5.11a3.94,3.94,0,0,1-2.19-3.05c1-14.31,2.19-28.6,3.38-42.89,0-.66.54-1.28,1.24-2.87l27.52,47.25,1-.13,4.94-57.82,1.13-.32,27.21,46.61H276q2.48-28.69,4.94-57.38l1-.38q13.62,23.24,27.23,46.47l1.35-.12q2.43-28.62,4.85-57.26l1-.34q13.54,23.1,27.11,46.18Z"/>
        <path d="M304,130.25c6.46,3.58,12.83,7.33,19.41,10.67,4.24,2.15,5.34,5,4.54,9.61-.9,5.23-.88,10.62-1.33,15.94a31.73,31.73,0,0,1-1.09,4.12L302.88,131.5Z"/>
        <path d="M195.8,371.44c-3.57-1.85-7.18-3.62-10.68-5.58a37.6,37.6,0,0,1-6.5-4.31c-1.21-1.06-2.53-2.85-2.51-4.3.06-5.32.65-10.64,1.08-16,0-.44.41-.85,1.07-2.12l18.28,31.43Z"/>
        <path d="M163,94c3.76-1.86,7.09-3.78,10.62-5.19,3.07-1.22,4.91,1,6.27,3.34a5.37,5.37,0,0,1-1.37,7.38,36.67,36.67,0,0,1-7.68,4.55c-.71.33-2.57-.6-3.13-1.46C166.08,100.14,164.83,97.42,163,94Z"/>
        <path d="M152.12,75.1l8.94-4.71c3.25-1.71,5.27,0,6.67,2.65,1.49,2.79,1,5.36-1.82,7.15-2.41,1.54-4.9,3-7.9,4.75Z"/>
        <path d="M406.83,117.81c-2.22,2.38-3.6,4.82-5.66,5.72-1.6.71-4.57.15-6-1-7.35-5.77-7.11-6.32-.37-12.78,2.52-2.41,4-2.1,5.92.29S404.4,114.75,406.83,117.81Z"/>
        <path d="M237.93,73.19l-13.86,2c1.62-7.72,3.12-14.8,4.71-22.38C231.85,59.65,234.75,66.11,237.93,73.19Z"/>
      </g>
    </g>
  </g>
</svg>
