<svg xmlns="http://www.w3.org/2000/svg" viewBox="0 0 381.3 381.3">
  <defs>
    <style>
      .cls-1 {
        fill: #fff;
      }
    </style>
  </defs>
  <g id="Calque_2" data-name="Calque 2">
    <g id="Calque_1-2" data-name="Calque 1">
      <circle cx="190.65" cy="190.65" r="190.65"/>
      <g>
        <g>
          <path class="cls-1" d="M291.75,147.93l-24.51,64.45H120.15L85.5,113.49h0v-.06H42.26V131H73l51.11,145.86.15-.05v.05l138.2-.13,6.43-17.42H136.6l-10.3-29.37H279.7v0l34.77-93.73,2-5.94h-18Z"/>
          <circle class="cls-1" cx="150.11" cy="294.32" r="17.96"/>
          <circle class="cls-1" cx="238.89" cy="294.32" r="17.96"/>
        </g>
        <polygon class="cls-1" points="238.51 147.8 238.51 130.25 203.28 130.25 203.28 95.02 185.72 95.02 185.72 130.25 150.49 130.25 150.49 147.8 185.72 147.8 185.72 183.03 203.28 183.03 203.28 147.8 238.51 147.8"/>
      </g>
    </g>
  </g>
</svg>
