<svg xmlns="http://www.w3.org/2000/svg" viewBox="0 0 716.54 83.81">
  <g id="Calque_2" data-name="Calque 2">
    <g id="Calque_1-2" data-name="Calque 1">
      <g>
        <path d="M0,83.81V0H38.91C67.65,0,85.37,15.93,85.37,41.78c0,25-18.08,42-44.78,42ZM31.13,60.22h6.51c9.22,0,14.84-7.06,14.84-18.68,0-10.89-6-18.19-14.84-18.19H31.17Z"/>
        <path d="M94,83.81V0h31.73V83.81Z"/>
        <path d="M137.2,83.81V0h68.37V23.91H167.73V36.48H199.1V58.63H167.73V83.81Z"/>
        <path d="M214.42,83.81V0h68.37V23.91H245V36.48h31.37V58.63H245V83.81Z"/>
        <path d="M291.64,83.81V0h68.13V23.11h-38.2v8.38H352.7V51.84H321.57v8.74h38.2V83.81Z"/>
        <path d="M369.94,83.81V0h47.89c20.23,0,32.69,9.22,32.69,24.31,0,12.21-9.34,20.35-22.39,22,13.53,1.43,17.6,6.34,21.19,19.39l4.91,18.08H421.3l-4.55-20.87c-1.32-6-2.75-8.14-7.78-8.14h-8.5v29Zm30.53-48.13H411c4.9,0,7.9-2.88,7.9-6.59,0-4-2.88-6.58-7.9-6.58H400.47Z"/>
        <path d="M461.4,83.81V0h68.13V23.11H491.34v8.38h31.13V51.84H491.34v8.74h38.19V83.81Z"/>
        <path d="M539.7,83.81V0H579L600.4,42.5V0h29.34V83.81H595.86L569,30.29V83.81Z"/>
        <path d="M660.86,83.81V21.55H636.92V0h79.62V21.55h-24V83.81Z"/>
      </g>
    </g>
  </g>
</svg>
