<svg xmlns="http://www.w3.org/2000/svg" viewBox="0 0 382.48 442.21">
  <defs>
    <style>
      .cls-1 {
        fill: #fff;
      }
    </style>
  </defs>
  <g id="Calque_2" data-name="Calque 2">
    <g id="Calque_1-2" data-name="Calque 1">
      <g>
        <path d="M310.59,442.21l-12.08-34c-71.63,39-142.7,39-214.52,0-3.95,11.1-8,22.46-12.08,33.91a141,141,0,0,0-38.51-3c-9.46.64-18.91,1.56-28.33,2.64-2.34.27-3.59-.06-4.6-2.23s-.37-3.36,1.33-4.62c16.66-12.38,29-28.31,38.2-46.77,0-.1.13-.2.19-.3,4.06-7.4,5.66-13.68-1.45-21.3-11.53-12.38-18.81-27.74-24.28-43.72a144,144,0,0,1,2.56-99,150.83,150.83,0,0,1,30.66-48,174.18,174.18,0,0,1,58.21-41.37c3.12-1.36,4-3,3-6.43C105,114.83,101,101.78,92.53,90.74a111.28,111.28,0,0,0-9.7-10.89c-4-4-4.19-3.91-.94-9.54,3.84,1.8,7.78,3.56,11.65,5.46,14.12,6.91,27.89,14.41,39.93,24.68,2,1.68,3.19.71,4.74-.46a95.29,95.29,0,0,1,26.26-14.06c1.29-.45,3.55-.65,4.18.07,1.44,1.65,1.62,3.75.16,6a143.3,143.3,0,0,0-8.7,14.7c-1.72,3.47-2.46,7.41-3.94,12.1a227.64,227.64,0,0,1,70,0c-1.29-4.42-1.89-8.23-3.49-11.56-2.41-5-5.57-9.66-8.29-14.54a9.11,9.11,0,0,1-1.48-4.55c.16-2.62,1.52-3.7,4.5-2.6a100.13,100.13,0,0,1,26.88,14.46c2,1.56,3.29,1.53,5.31-.14,14.74-12.22,31.7-20.72,48.94-28.71a10.74,10.74,0,0,1,2-.5c3.55,5,3.49,5.05-1,9.15-10.21,9.35-17,20.86-21.48,33.86-1.58,4.6-2.8,9.33-4.42,13.91-1.19,3.35-.53,5.3,2.95,6.76a162,162,0,0,1,38.89,23.55c26.63,21.37,45.85,47.82,55,81.07a140.32,140.32,0,0,1-.58,77.55,145.4,145.4,0,0,1-30.66,55.84,4.73,4.73,0,0,0-1,5.27c4.28,12.59,11.07,23.77,19.11,34.24a112.33,112.33,0,0,0,22.77,22.54c1.78,1.29,3.07,2.49,1.85,5.1s-2.75,2.35-5,2.06C355.06,438.75,333.13,437,310.59,442.21ZM138.47,254.51a32.13,32.13,0,0,0-2.09,3.82q-8.58,24.26-17.08,48.52c-8,23.09-16,46.22-24.18,69.24-1,2.74-.64,4.29,1.41,5.93,6.84,5.46,13.32,11.45,20.54,16.34,21.39,14.47,45.23,21.78,71,22.53a131.4,131.4,0,0,0,54.81-10.4,136.7,136.7,0,0,0,43.68-29.26,5.21,5.21,0,0,0,.92-4.32c-1-3.74-2.51-7.35-3.79-11q-17.91-51.33-35.83-102.67c-.94-2.68-2.19-5.25-3.29-7.88l-1.31.23c-5.22,21.24-10.23,42.53-15.74,63.69-3.81,14.6-.07,26.86,9.85,37.7,3.56,3.9,2.86,8-2.16,9.91a134.57,134.57,0,0,1-16.4,4.8,5.11,5.11,0,0,0-4.27,3.65c-4.62,12-12.38,22-21.6,30.79a3.43,3.43,0,0,1-3.34.07c-9.25-8.8-17-18.74-21.64-30.76-.94-2.45-2.16-3.21-4.57-3.78A127.38,127.38,0,0,1,147,366.76c-4.73-1.81-5.36-6-2-9.72,8.37-9.3,13.26-19.79,10.94-32.66-.67-3.71-1.37-7.43-2.27-11.08q-4.69-19-9.56-37.88C142.41,268.76,140.54,262.15,138.47,254.51Zm52.09,31.73,1.1-.06a12,12,0,0,0,1-2.21q6.17-24.44,12.27-48.89c4.77-19.13,9.7-38.23,14.23-57.42,2.79-11.83,4.91-23.83,7.46-35.72.82-3.84-.9-5.09-4.36-5.9a132.33,132.33,0,0,0-60.07-.4c-7.1,1.6-7.14,1.47-6.15,8.57.05.36.14.72.22,1.07,4.25,18.38,8.34,36.79,12.77,55.11,6.21,25.68,12.67,51.29,19,76.92C188.85,280.31,189.74,283.27,190.56,286.24Zm-129.39,41,1.14.31a15.92,15.92,0,0,0,1.49-2.66c10.55-31,21.34-61.91,31.5-93A408.32,408.32,0,0,0,110.75,168c.41-2.67.53-5.4.79-8.1l-1.09-.46a140.86,140.86,0,0,0-47.78,62.68C49.14,256.94,48.81,292.09,61.17,327.27Zm258.77.33,1.28-.32c12.28-35.08,12-70.17-1.42-104.94a136.21,136.21,0,0,0-48.35-62.61,12.57,12.57,0,0,0-.16,4.5,316.68,316.68,0,0,0,12.52,56.22c10.54,33.41,21.95,66.54,33.05,99.76C317.7,322.74,318.91,325.14,319.94,327.6Z"/>
        <path d="M212.17,65.6C206.1,61.21,200,56.89,194,52.38c-2-1.47-3.33-1.65-5.38-.07-5.49,4.22-11.18,8.19-16.8,12.24-.54.39-1.13.7-2.61,1.6,1.63-5.26,3-9.59,4.31-13.92.36-1.16.77-2.3,1.16-3.45,3.3-10,3.51-7.63-4.52-13.65-4.43-3.32-8.91-6.59-13.36-9.88l.3-1h14.38c11.4,0,11.4,0,14.84-10.93,1.1-3.48,2.16-7,3.29-10.44.31-1,.79-1.88,1.19-2.82L191.83,0q2,6.07,4,12.14a80.91,80.91,0,0,1,2.84,8.65c.66,3.16,2.5,3.57,5.24,3.52,7.12-.15,14.24,0,21.36,0l.35.88c-1.46,1.16-2.88,2.36-4.38,3.47-4.4,3.24-8.75,6.57-13.29,9.62-2.25,1.52-2.64,3.2-1.84,5.58,2.07,6.23,4.08,12.49,6.09,18.74.28.86.46,1.76.68,2.65Z"/>
        <path class="cls-1" d="M138.47,254.51c2.07,7.64,3.94,14.25,5.66,20.91q4.86,18.91,9.56,37.88c.9,3.65,1.6,7.37,2.27,11.08,2.32,12.87-2.57,23.36-10.94,32.66-3.36,3.72-2.73,7.91,2,9.72a127.38,127.38,0,0,0,16.38,4.88c2.41.57,3.63,1.33,4.57,3.78,4.64,12,12.39,22,21.64,30.76a3.43,3.43,0,0,0,3.34-.07c9.22-8.83,17-18.75,21.6-30.79a5.11,5.11,0,0,1,4.27-3.65,134.57,134.57,0,0,0,16.4-4.8c5-1.89,5.72-6,2.16-9.91-9.92-10.84-13.66-23.1-9.85-37.7,5.51-21.16,10.52-42.45,15.74-63.69l1.31-.23c1.1,2.63,2.35,5.2,3.29,7.88q18,51.33,35.83,102.67c1.28,3.67,2.79,7.28,3.79,11a5.21,5.21,0,0,1-.92,4.32,136.7,136.7,0,0,1-43.68,29.26,131.4,131.4,0,0,1-54.81,10.4c-25.78-.75-49.62-8.06-71-22.53-7.22-4.89-13.7-10.88-20.54-16.34-2-1.64-2.38-3.19-1.41-5.93,8.21-23,16.13-46.15,24.18-69.24q8.46-24.28,17.08-48.52A32.13,32.13,0,0,1,138.47,254.51Z"/>
        <path class="cls-1" d="M190.56,286.24c-.82-3-1.71-5.93-2.46-8.93-6.37-25.63-12.83-51.24-19-76.92-4.43-18.32-8.52-36.73-12.77-55.11-.08-.35-.17-.71-.22-1.07-1-7.1-.95-7,6.15-8.57a132.33,132.33,0,0,1,60.07.4c3.46.81,5.18,2.06,4.36,5.9-2.55,11.89-4.67,23.89-7.46,35.72-4.53,19.19-9.46,38.29-14.23,57.42q-6.11,24.45-12.27,48.89a12,12,0,0,1-1,2.21Z"/>
        <path class="cls-1" d="M61.17,327.27c-12.36-35.18-12-70.33,1.5-105.12a140.86,140.86,0,0,1,47.78-62.68l1.09.46c-.26,2.7-.38,5.43-.79,8.1A408.32,408.32,0,0,1,95.3,231.88c-10.16,31.13-21,62.05-31.5,93a15.92,15.92,0,0,1-1.49,2.66Z"/>
        <path class="cls-1" d="M319.94,327.6c-1-2.46-2.24-4.86-3.08-7.39-11.1-33.22-22.51-66.35-33.05-99.76a316.68,316.68,0,0,1-12.52-56.22,12.57,12.57,0,0,1,.16-4.5,136.21,136.21,0,0,1,48.35,62.61c13.47,34.77,13.7,69.86,1.42,104.94Z"/>
      </g>
    </g>
  </g>
</svg>
