<?xml version="1.0" encoding="utf-8"?>
<!-- Generator: Adobe Illustrator 26.0.1, SVG Export Plug-In . SVG Version: 6.00 Build 0)  -->
<svg version="1.1" id="Calque_1" xmlns="http://www.w3.org/2000/svg" xmlns:xlink="http://www.w3.org/1999/xlink" x="0px" y="0px"
	 viewBox="0 0 382.5 442.2" style="enable-background:new 0 0 382.5 442.2;" xml:space="preserve">
<style type="text/css">
	.st0{fill:#FFFFFF;}
</style>
<g id="Calque_2_00000109710650478575426950000017202862810458460857_">
	<g id="Calque_1-2">
		<g>
			<path class="st0" d="M310.6,442.2l-12.1-34c-71.6,39-142.7,39-214.5,0c-3.9,11.1-8,22.5-12.1,33.9c-12.6-2.8-25.6-3.8-38.5-3
				c-9.5,0.6-18.9,1.6-28.3,2.6c-2.3,0.3-3.6-0.1-4.6-2.2s-0.4-3.4,1.3-4.6c16.7-12.4,29-28.3,38.2-46.8c0-0.1,0.1-0.2,0.2-0.3
				c4.1-7.4,5.7-13.7-1.5-21.3c-11.5-12.4-18.8-27.7-24.3-43.7c-10.9-32.3-10-67.3,2.6-99c7.1-17.8,17.5-34.1,30.7-48
				c16.3-17.7,36.2-31.7,58.2-41.4c3.1-1.4,4-3,3-6.4c-3.9-13.2-7.9-26.2-16.4-37.3c-3-3.8-6.2-7.5-9.7-10.9c-4-4-4.2-3.9-0.9-9.5
				c3.8,1.8,7.8,3.6,11.7,5.5c14.1,6.9,27.9,14.4,39.9,24.7c2,1.7,3.2,0.7,4.7-0.5c8-6,16.8-10.8,26.3-14.1c1.3-0.4,3.6-0.7,4.2,0.1
				c1.4,1.7,1.6,3.8,0.2,6c-3.2,4.7-6.1,9.6-8.7,14.7c-1.7,3.5-2.5,7.4-3.9,12.1c23.2-3.6,46.8-3.6,70,0c-1.3-4.4-1.9-8.2-3.5-11.6
				c-2.4-5-5.6-9.7-8.3-14.5c-0.9-1.4-1.4-2.9-1.5-4.6c0.2-2.6,1.5-3.7,4.5-2.6c9.6,3.4,18.7,8.3,26.9,14.5c2,1.6,3.3,1.5,5.3-0.1
				c14.7-12.2,31.7-20.7,48.9-28.7c0.6-0.2,1.3-0.4,2-0.5c3.5,5,3.5,5.1-1,9.2c-10.2,9.3-17,20.9-21.5,33.9
				c-1.6,4.6-2.8,9.3-4.4,13.9c-1.2,3.4-0.5,5.3,3,6.8c14,6,27.1,13.9,38.9,23.6c26.6,21.4,45.9,47.8,55,81.1
				c7.1,25.4,6.9,52.3-0.6,77.6c-6,20.7-16.4,39.7-30.7,55.8c-1.4,1.4-1.8,3.5-1,5.3c4.3,12.6,11.1,23.8,19.1,34.2
				c6.5,8.6,14.1,16.2,22.8,22.5c1.8,1.3,3.1,2.5,1.9,5.1s-2.8,2.4-5,2.1C355.1,438.8,333.2,437,310.6,442.2z M138.5,254.5
				c-0.8,1.2-1.5,2.5-2.1,3.8c-5.7,16.2-11.4,32.3-17.1,48.5c-8,23.1-16,46.2-24.2,69.2c-1,2.7-0.6,4.3,1.4,5.9
				c6.8,5.5,13.3,11.5,20.5,16.3c21.4,14.5,45.2,21.8,71,22.5c18.8,0.5,37.5-3.1,54.8-10.4c16.3-6.8,31.2-16.8,43.7-29.3
				c0.9-1.2,1.3-2.8,0.9-4.3c-1-3.7-2.5-7.4-3.8-11c-11.9-34.2-23.9-68.4-35.8-102.7c-0.9-2.7-2.2-5.2-3.3-7.9l-1.3,0.2
				c-5.2,21.2-10.2,42.5-15.7,63.7c-3.8,14.6-0.1,26.9,9.9,37.7c3.6,3.9,2.9,8-2.2,9.9c-5.4,1.9-10.8,3.5-16.4,4.8
				c-2,0.3-3.7,1.7-4.3,3.6c-4.6,12-12.4,22-21.6,30.8c-1,0.6-2.3,0.6-3.3,0.1c-9.2-8.8-17-18.7-21.6-30.8c-0.9-2.5-2.2-3.2-4.6-3.8
				c-5.6-1.3-11-2.9-16.4-4.9c-4.7-1.8-5.4-6-2-9.7c8.4-9.3,13.3-19.8,10.9-32.7c-0.7-3.7-1.4-7.4-2.3-11.1
				c-3.1-12.7-6.3-25.3-9.6-37.9C142.4,268.8,140.6,262.1,138.5,254.5z M190.6,286.2l1.1-0.1c0.4-0.7,0.7-1.4,1-2.2
				c4.1-16.3,8.2-32.6,12.3-48.9c4.8-19.1,9.7-38.2,14.2-57.4c2.8-11.8,4.9-23.8,7.5-35.7c0.8-3.8-0.9-5.1-4.4-5.9
				c-19.7-4.7-40.3-4.9-60.1-0.4c-7.1,1.6-7.1,1.5-6.1,8.6c0.1,0.4,0.1,0.7,0.2,1.1c4.2,18.4,8.3,36.8,12.8,55.1
				c6.2,25.7,12.7,51.3,19,76.9C188.9,280.3,189.8,283.3,190.6,286.2z M61.2,327.2l1.1,0.3c0.6-0.8,1.1-1.7,1.5-2.7
				c10.5-31,21.3-61.9,31.5-93c6.9-20.8,12-42.2,15.4-63.9c0.4-2.7,0.5-5.4,0.8-8.1l-1.1-0.5c-21.6,15.9-38.1,37.7-47.8,62.7
				C49.2,256.9,48.8,292.1,61.2,327.2L61.2,327.2z M320,327.6l1.3-0.3c12.3-35.1,12-70.2-1.4-104.9c-9.6-25.2-26.4-47-48.4-62.6
				c-0.3,1.5-0.4,3-0.2,4.5c2.5,19.1,6.6,37.9,12.5,56.2c10.5,33.4,22,66.5,33,99.8C317.7,322.7,318.9,325.1,320,327.6L320,327.6z"
				/>
			<path class="st0" d="M212.2,65.6c-6.1-4.4-12.2-8.7-18.2-13.2c-2-1.5-3.3-1.7-5.4-0.1c-5.5,4.2-11.2,8.2-16.8,12.2
				c-0.5,0.4-1.1,0.7-2.6,1.6c1.6-5.3,3-9.6,4.3-13.9c0.4-1.2,0.8-2.3,1.2-3.5c3.3-10,3.5-7.6-4.5-13.6c-4.4-3.3-8.9-6.6-13.4-9.9
				l0.3-1h14.4c11.4,0,11.4,0,14.8-10.9c1.1-3.5,2.2-7,3.3-10.4c0.3-1,0.8-1.9,1.2-2.8l1-0.1c1.3,4,2.7,8.1,4,12.1
				c1.1,2.8,2.1,5.7,2.8,8.7c0.7,3.2,2.5,3.6,5.2,3.5c7.1-0.1,14.2,0,21.4,0l0.4,0.9c-1.5,1.2-2.9,2.4-4.4,3.5
				c-4.4,3.2-8.8,6.6-13.3,9.6c-2.2,1.5-2.6,3.2-1.8,5.6c2.1,6.2,4.1,12.5,6.1,18.7c0.3,0.9,0.5,1.8,0.7,2.7L212.2,65.6z"/>
		</g>
	</g>
</g>
</svg>
