<svg xmlns="http://www.w3.org/2000/svg" viewBox="0 0 381.3 381.3">
  <defs>
    <style>
      .cls-1 {
        fill: #fff;
      }
    </style>
  </defs>
  <g id="Calque_2" data-name="Calque 2">
    <g id="Calque_1-2" data-name="Calque 1">
      <circle cx="190.65" cy="190.65" r="190.65"/>
      <path class="cls-1" d="M305.69,204.48V180.59l-23.46-5.46a91.76,91.76,0,0,0-3.46-12.62L295.85,146l-11.94-20.69-23,7a93.73,93.73,0,0,0-8.68-8.58l6.83-23.94-20.69-12-17,18.22a93.54,93.54,0,0,0-11.83-3.15l-6-23.78H179.65l-5.48,23.62A92.18,92.18,0,0,0,162,105.85l-17.46-18-20.69,12,7.17,23.56a92.56,92.56,0,0,0-9.16,9l-22.65-6.46-12,20.69,16.85,15.75a89.13,89.13,0,0,0-3.6,13.17l-23,5.76v23.89l23,5.35a90.39,90.39,0,0,0,3.6,13L87.44,239.72l11.94,20.69,22.71-6.91a94,94,0,0,0,8.9,8.73l-6.76,23.71,20.69,11.94,17-18.17a91.87,91.87,0,0,0,11.87,3.09l6,23.79h23.89l5.53-23.81a92.52,92.52,0,0,0,11.91-3.11l17.64,18.21,20.69-11.94L252.11,262a92.33,92.33,0,0,0,8.85-8.73L284,259.85,296,239.16l-17.2-16.09a91.62,91.62,0,0,0,3.47-12.71ZM191.42,266.3c-41,0-74.18-32.91-74.18-73.5s33.21-73.5,74.18-73.5,74.18,32.91,74.18,73.5S232.39,266.3,191.42,266.3Z"/>
    </g>
  </g>
</svg>
