<svg xmlns="http://www.w3.org/2000/svg" viewBox="0 0 850.59 164.97">
  <g id="Calque_2" data-name="Calque 2">
    <g id="Calque_1-2" data-name="Calque 1">
      <g>
        <path d="M0,117l60.07-11c1.79,11.88,9.18,18.83,21.73,18.83,12.33,0,17.48-4.48,17.48-10.76,0-5.6-4.48-9.86-12.77-10.75L67,101.07C23.53,96.15,7.62,81.57,7.62,51.54,7.62,20.62,37.65,0,82.7,0c42.58,0,71.3,15.91,76.87,45L99.06,54.91c-2.24-9-9-15.47-19.27-15.47-8.75,0-14.57,3.81-14.57,9.86,0,6.73,4.48,9.87,14.79,11l19.94,2c39.45,4,61,22.42,61,50,0,33-29.58,52.67-80.23,52.67C32.27,165,4.93,146.79,0,117Z"/>
        <path d="M278.59,160.91l-6.5-24.43h-49.3l-6.73,24.43H159.14L209.79,4h79.56l51.32,156.88ZM233.77,96.15h27.79l-2.47-9.65c-4-15-7.17-28-10.75-43C243.86,58.94,240,72.84,236.24,87Z"/>
        <path d="M349.43,160.91V4h87l6.27,28.46c4.94,22.64,9.42,43.93,13.68,65,4.48-21.29,9.19-42.81,14.12-65.22L476.73,4h83.14V160.91h-55.8V48.18L475.61,160.91H433.48L405,48.18V160.91Z"/>
        <path d="M581.61,160.91V4H709.13V47.29H637.64V63h58.27v38.1H637.64v16.36h71.49v43.48Z"/>
      </g>
      <g>
        <path d="M719.34,160.78V117.46H742.5c9.41,0,14.8,4.11,14.8,10.52,0,5.38-3.3,9-9.22,10,6.87,1.12,11,5.38,11,11.14,0,7.3-6,11.64-16.1,11.64Zm15.38-26.37h4.93a3,3,0,1,0,.71-5.92h-.08a3.32,3.32,0,0,0-.63,0h-4.93Zm0,15.35h5c2.1,0,3.59-1.3,3.59-3.1a3.26,3.26,0,0,0-3.35-3.17h-5.25Z"/>
        <path d="M762.84,141.72V117.46H779v22.65c0,6.43,1.55,8.79,5.45,8.79s5.38-2.36,5.38-8.79V117.46h16.34v24.26c0,14.1-7.06,20.18-21.66,20.18S762.84,155.82,762.84,141.72Z"/>
        <path d="M821.8,160.78V128.6H809.46V117.46h41.13V128.6H838.25v32.18Z"/>
      </g>
    </g>
  </g>
</svg>
