<?xml version="1.0" encoding="utf-8"?>
<!-- Generator: Adobe Illustrator 26.0.1, SVG Export Plug-In . SVG Version: 6.00 Build 0)  -->
<svg version="1.1" id="Calque_1" xmlns="http://www.w3.org/2000/svg" xmlns:xlink="http://www.w3.org/1999/xlink" x="0px" y="0px"
	 viewBox="0 0 1065.9 254.9" style="enable-background:new 0 0 1065.9 254.9;" xml:space="preserve">
<g>
	<path d="M0,117l60.1-11c1.8,11.9,9.2,18.8,21.7,18.8c12.3,0,17.5-4.5,17.5-10.8c0-5.6-4.5-9.9-12.8-10.8L67,101.1
		C23.5,96.2,7.6,81.6,7.6,51.5C7.6,20.6,37.7,0,82.7,0c42.6,0,71.3,15.9,76.9,45l-60.5,9.9c-2.2-9-9-15.5-19.3-15.5
		c-8.8,0-14.6,3.8-14.6,9.9c0,6.7,4.5,9.9,14.8,11l19.9,2c39.4,4,61,22.4,61,50c0,33-29.6,52.7-80.2,52.7C32.3,165,4.9,146.8,0,117z
		"/>
	<path d="M278.6,160.9l-6.5-24.4h-49.3l-6.7,24.4h-56.9L209.8,4h79.6l51.3,156.9L278.6,160.9z M233.8,96.2h27.8l-2.5-9.7
		c-4-15-7.2-28-10.8-43c-4.5,15.4-8.3,29.3-12.1,43.5L233.8,96.2z"/>
	<path d="M349.4,160.9V4h87l6.3,28.5c4.9,22.6,9.4,43.9,13.7,65c4.5-21.3,9.2-42.8,14.1-65.2L476.7,4h83.1v156.9h-55.8V48.2
		l-28.5,112.7h-42.1L405,48.2v112.7H349.4z"/>
	<path d="M581.6,160.9V4h127.5v43.3h-71.5V63h58.3v38.1h-58.3v16.4h71.5v43.5L581.6,160.9z"/>
</g>
<g>
	<path d="M719.3,160.8v-43.3h23.2c9.4,0,14.8,4.1,14.8,10.5c0,5.4-3.3,9-9.2,10c6.9,1.1,11,5.4,11,11.1c0,7.3-6,11.6-16.1,11.6
		L719.3,160.8z M734.7,134.4h4.9c1.6,0.2,3.1-1,3.3-2.6c0.2-1.6-1-3.1-2.6-3.3c0,0-0.1,0-0.1,0c-0.2,0-0.4,0-0.6,0h-4.9V134.4z
		 M734.7,149.8h5c2.1,0,3.6-1.3,3.6-3.1c0-1.8-1.5-3.2-3.3-3.2c-0.1,0-0.2,0-0.2,0h-5V149.8z"/>
	<path d="M762.8,141.7v-24.3H779v22.6c0,6.4,1.5,8.8,5.4,8.8s5.4-2.4,5.4-8.8v-22.6h16.3v24.3c0,14.1-7.1,20.2-21.7,20.2
		C769.9,161.9,762.8,155.8,762.8,141.7z"/>
	<path d="M821.8,160.8v-32.2h-12.3v-11.1h41.1v11.1h-12.3v32.2H821.8z"/>
</g>
<g>
	<path d="M349.4,254.9v-83.8h38.9c28.7,0,46.5,15.9,46.5,41.8c0,25-18.1,42-44.8,42L349.4,254.9z M380.5,231.3h6.5
		c9.2,0,14.8-7.1,14.8-18.7c0-10.9-6-18.2-14.8-18.2h-6.5L380.5,231.3z"/>
	<path d="M443.3,254.9v-83.8h31.7v83.8H443.3z"/>
	<path d="M486.6,254.9v-83.8h68.4V195h-37.8v12.6h31.4v22.1h-31.4v25.2H486.6z"/>
	<path d="M563.8,254.9v-83.8h68.4V195h-37.8v12.6h31.4v22.1h-31.4v25.2H563.8z"/>
	<path d="M641,254.9v-83.8h68.1v23.1h-38.2v8.4h31.1v20.4h-31.1v8.7h38.2v23.2H641z"/>
	<path d="M719.3,254.9v-83.8h47.9c20.2,0,32.7,9.2,32.7,24.3c0,12.2-9.3,20.4-22.4,22c13.5,1.4,17.6,6.3,21.2,19.4l4.9,18.1h-32.9
		l-4.5-20.9c-1.3-6-2.8-8.1-7.8-8.1h-8.5v29L719.3,254.9z M749.8,206.8h10.5c4.9,0,7.9-2.9,7.9-6.6c0-4-2.9-6.6-7.9-6.6h-10.5V206.8
		z"/>
	<path d="M810.8,254.9v-83.8h68.1v23.1h-38.2v8.4h31.1v20.4h-31.1v8.7h38.2v23.2H810.8z"/>
	<path d="M889.1,254.9v-83.8h39.3l21.4,42.5v-42.5h29.3v83.8h-33.9l-26.8-53.5v53.5H889.1z"/>
	<path d="M1010.2,254.9v-62.3h-23.9v-21.6h79.6v21.6h-24v62.3H1010.2z"/>
</g>
</svg>
